<svg height="512" viewBox="0 0 64 64" width="512" xmlns="http://www.w3.org/2000/svg"><g id="Server"><rect fill="#2488ff" height="14" rx="2" width="48" x="8" y="7"/><path d="m12 21h40v4h-40z" fill="#a7a9ac"/><path d="m12 39h40v4h-40z" fill="#a7a9ac"/><path d="m12 59a2 2 0 0 0 2 2h36a2 2 0 0 0 2-2v-2h-40z" fill="#a7a9ac"/><path d="m52 5a2 2 0 0 0 -2-2h-36a2 2 0 0 0 -2 2v2h40z" fill="#a7a9ac"/><path d="m24 11h12v6h-12z" fill="#ffcd00"/><circle cx="50" cy="14" fill="#d80027" r="2"/><circle cx="42" cy="14" fill="#d80027" r="2"/><rect fill="#006df0" height="14" rx="2" width="48" x="8" y="25"/><path d="m24 29h12v6h-12z" fill="#ffcd00"/><circle cx="42" cy="32" fill="#d80027" r="2"/><circle cx="50" cy="32" fill="#d80027" r="2"/><rect fill="#005ece" height="14" rx="2" width="48" x="8" y="43"/><path d="m24 47h12v6h-12z" fill="#ffcd00"/><circle cx="42" cy="50" fill="#d80027" r="2"/><circle cx="50" cy="50" fill="#d80027" r="2"/><path d="m12 21h40v2h-40z" fill="#808285"/><path d="m12 39h40v2h-40z" fill="#808285"/><path d="m12 57h40v2h-40z" fill="#808285"/><g fill="#231f20"><path d="m54 22a3 3 0 0 0 3-3v-10a3 3 0 0 0 -3-3h-1v-1a3 3 0 0 0 -3-3h-36a3 3 0 0 0 -3 3v1h-1a3 3 0 0 0 -3 3v10a3 3 0 0 0 3 3h1v2h-1a3 3 0 0 0 -3 3v10a3 3 0 0 0 3 3h1v2h-1a3 3 0 0 0 -3 3v10a3 3 0 0 0 3 3h1v1a3 3 0 0 0 3 3h36a3 3 0 0 0 3-3v-1h1a3 3 0 0 0 3-3v-10a3 3 0 0 0 -3-3h-1v-2h1a3 3 0 0 0 3-3v-10a3 3 0 0 0 -3-3h-1v-2zm-41-17a1 1 0 0 1 1-1h36a1 1 0 0 1 1 1v1h-38zm-3 15a1 1 0 0 1 -1-1v-10a1 1 0 0 1 1-1h43s2 .449 2 1v10a1 1 0 0 1 -1 1zm41 39a1 1 0 0 1 -1 1h-36a1 1 0 0 1 -1-1v-1h38zm3-15a1 1 0 0 1 1 1v10a1 1 0 0 1 -1 1h-44a1 1 0 0 1 -1-1v-10a1 1 0 0 1 1-1zm-3-2h-38v-2h38zm3-16a1 1 0 0 1 1 1v10a1 1 0 0 1 -1 1h-44a1 1 0 0 1 -1-1v-10a1 1 0 0 1 1-1zm-3-2h-38v-2h38z"/><path d="m11 15h2v3h-2z"/><path d="m11 10h2v3h-2z"/><path d="m15 15h2v3h-2z"/><path d="m15 10h2v3h-2z"/><path d="m19 15h2v3h-2z"/><path d="m19 10h2v3h-2z"/><path d="m36 10h-12a1 1 0 0 0 -1 1v6a1 1 0 0 0 1 1h12a1 1 0 0 0 1-1v-6a1 1 0 0 0 -1-1zm-1 6h-10v-4h10z"/><path d="m50 11a3 3 0 1 0 3 3 3 3 0 0 0 -3-3zm0 4a1 1 0 1 1 1-1 1 1 0 0 1 -1 1z"/><path d="m42 11a3 3 0 1 0 3 3 3 3 0 0 0 -3-3zm0 4a1 1 0 1 1 1-1 1 1 0 0 1 -1 1z"/><path d="m24 36h12a1 1 0 0 0 1-1v-6a1 1 0 0 0 -1-1h-12a1 1 0 0 0 -1 1v6a1 1 0 0 0 1 1zm1-6h10v4h-10z"/><path d="m42 35a3 3 0 1 0 -3-3 3 3 0 0 0 3 3zm0-4a1 1 0 1 1 -1 1 1 1 0 0 1 1-1z"/><path d="m24 54h12a1 1 0 0 0 1-1v-6a1 1 0 0 0 -1-1h-12a1 1 0 0 0 -1 1v6a1 1 0 0 0 1 1zm1-6h10v4h-10z"/><path d="m42 53a3 3 0 1 0 -3-3 3 3 0 0 0 3 3zm0-4a1 1 0 1 1 -1 1 1 1 0 0 1 1-1z"/><path d="m11 33h2v3h-2z"/><path d="m11 28h2v3h-2z"/><path d="m15 33h2v3h-2z"/><path d="m15 28h2v3h-2z"/><path d="m19 33h2v3h-2z"/><path d="m19 28h2v3h-2z"/><path d="m50 35a3 3 0 1 0 -3-3 3 3 0 0 0 3 3zm0-4a1 1 0 1 1 -1 1 1 1 0 0 1 1-1z"/><path d="m11 51h2v3h-2z"/><path d="m11 46h2v3h-2z"/><path d="m15 51h2v3h-2z"/><path d="m15 46h2v3h-2z"/><path d="m19 51h2v3h-2z"/><path d="m19 46h2v3h-2z"/><path d="m50 53a3 3 0 1 0 -3-3 3 3 0 0 0 3 3zm0-4a1 1 0 1 1 -1 1 1 1 0 0 1 1-1z"/></g></g></svg>