<svg height="496pt" viewBox="0 0 496 496" width="496pt" xmlns="http://www.w3.org/2000/svg"><path d="m344 360v112c0 8.800781-7.199219 16-16 16h-304c-8.800781 0-16-7.199219-16-16v-432c0-8.800781 7.199219-16 16-16h304c8.800781 0 16 7.199219 16 16zm0 0" fill="#dfb28b"/><path d="m248 24v32c0 8.800781-7.199219 16-16 16h-112c-8.800781 0-16-7.199219-16-16v-32c0-8.800781 7.199219-16 16-16h112c8.800781 0 16 7.199219 16 16zm0 0" fill="#fcd770"/><path d="m248 56c0 8.800781-7.199219 16-16 16h-112c-8.800781 0-16-7.199219-16-16h-64v400h272v-400zm0 0" fill="#e6e9ed"/><path d="m147.601562 280h4.398438v80h-80v-80zm0 0" fill="#b4dd7f"/><path d="m147.601562 136h4.398438v80h-80v-80zm0 0" fill="#b4dd7f"/><path d="m488 152v208l-121.679688-103.761719c4.160157-2.160156 8.160157-4.878906 11.757813-8.078125zm0 0" fill="#aab2bd"/><path d="m305.679688 256.238281-121.679688 103.761719v-208l109.921875 96.160156c3.597656 3.199219 7.597656 5.917969 11.757813 8.078125zm0 0" fill="#aab2bd"/><path d="m488 360h-304l121.679688-103.761719c9.28125 5.121094 19.679687 7.761719 30.320312 7.761719s21.039062-2.640625 30.320312-7.761719zm0 0" fill="#ccd1d9"/><path d="m366.320312 256.238281c-9.28125 5.121094-19.679687 7.761719-30.320312 7.761719s-21.039062-2.640625-30.320312-7.761719c-4.160157-2.160156-8.160157-4.878906-11.757813-8.078125l-109.921875-96.160156h304l-109.921875 96.160156c-3.597656 3.199219-7.597656 5.917969-11.757813 8.078125zm0 0" fill="#e6e9ed"/><path d="m496 144h-144v-104c0-13.230469-10.769531-24-24-24h-73.472656c-3.3125-9.289062-12.113282-16-22.527344-16h-112c-10.414062 0-19.214844 6.710938-22.527344 16h-73.472656c-13.230469 0-24 10.769531-24 24v432c0 13.230469 10.769531 24 24 24h304c13.230469 0 24-10.769531 24-24v-104h144zm-398.527344-80c3.3125 9.289062 12.113282 16 22.527344 16h112c10.414062 0 19.214844-6.710938 22.527344-16h49.472656v80h-128v224h128v80h-256v-384zm238.527344 192c-13.535156 0-26.609375-4.902344-36.800781-13.832031l-93.902344-82.167969h261.414063l-93.910157 82.167969c-10.191406 8.929687-23.265625 13.832031-36.800781 13.832031zm-144-86.367188 96.671875 84.582032c1.175781 1.03125 2.425781 1.976562 3.65625 2.921875l-100.328125 85.535156zm13.710938 182.367188 101.160156-86.238281c9.105468 4.046875 19 6.238281 29.128906 6.238281s20.023438-2.191406 29.136719-6.238281l101.152343 86.238281zm173.960937-94.863281c1.238281-.945313 2.480469-1.890625 3.65625-2.921875l96.671875-84.582032v173.039063zm-43.671875-217.136719v104h-16v-96h-64v-16h72c4.414062 0 8 3.585938 8 8zm-224-16c0-4.414062 3.585938-8 8-8h112c4.414062 0 8 3.585938 8 8v32c0 4.414062-3.585938 8-8 8h-112c-4.414062 0-8-3.585938-8-8zm224 448c0 4.414062-3.585938 8-8 8h-304c-4.414062 0-8-3.585938-8-8v-432c0-4.414062 3.585938-8 8-8h72v16h-64v416h288v-96h16zm0 0"/><path d="m160 131.472656 14.753906-23.175781-13.507812-8.59375-18 28.296875h-79.246094v96h96zm-80 76.527344v-64h53.0625l-23.421875 36.816406-17.199219-11.472656-8.875 13.3125 30.800782 20.527344 29.632812-46.566406v51.382812zm0 0"/><path d="m160 275.472656 14.753906-23.175781-13.507812-8.59375-18 28.296875h-79.246094v96h96zm-80 76.527344v-64h53.0625l-23.421875 36.816406-17.199219-11.472656-8.875 13.3125 30.800782 20.527344 29.632812-46.566406v51.382812zm0 0"/><path d="m272 416h16v16h-16zm0 0"/><path d="m64 416h192v16h-192zm0 0"/><path d="m64 384h224v16h-224zm0 0"/></svg>