<svg id="Layer_3" enable-background="new 0 0 64 64" height="512" viewBox="0 0 64 64" width="512" xmlns="http://www.w3.org/2000/svg"><circle cx="32" cy="27" fill="#4bbee5" r="24"/><path d="m32 3c13.25 0 24 10.75 24 24s-10.75 24-24 24z" fill="#3c7eb0"/><g fill="#171526"><path d="m7 56.414 6.707-6.707c.188-.187.293-.442.293-.707v-4.677c1.212 1.259 2.549 2.395 4 3.379v2.884l-4.707 4.707c-.188.187-.293.442-.293.707v2h2v-1.586l4.707-4.707c.188-.187.293-.442.293-.707v-2.076c1.572.864 3.247 1.559 5 2.071v1.591l-2.707 2.707c-.188.187-.293.442-.293.707v2h2v-1.586l2.707-2.707c.188-.187.293-.442.293-.707v-1.503c1.299.265 2.636.424 4 .478v6.025h2v-6.025c1.364-.054 2.701-.213 4-.478v1.503c0 .265.105.52.293.707l2.707 2.707v1.586h2v-2c0-.265-.105-.52-.293-.707l-2.707-2.707v-1.591c1.753-.512 3.428-1.207 5-2.071v2.076c0 .265.105.52.293.707l4.707 4.707v1.586h2v-2c0-.265-.105-.52-.293-.707l-4.707-4.707v-2.884c1.451-.984 2.788-2.12 4-3.379v4.677c0 .265.105.52.293.707l6.707 6.707v1.586h2v-2c0-.265-.105-.52-.293-.707l-6.707-6.707v-6.603c3.138-4.178 5-9.367 5-14.983 0-13.785-11.215-25-25-25s-25 11.215-25 25c0 5.616 1.862 10.805 5 14.983v6.603l-6.707 6.707c-.188.187-.293.442-.293.707v2h2zm4.461-19.082c1.21-.444 2.463-.859 3.783-1.218.597 2.108 1.389 4.08 2.354 5.865-.803.241-1.579.501-2.325.782-1.518-1.609-2.805-3.435-3.812-5.429zm10.559-9.332c.051 1.593.224 3.142.486 4.639-2.001.27-3.943.627-5.812 1.062-.385-1.816-.618-3.726-.677-5.701zm8.98 12.021c-1.393.024-2.773.094-4.127.217-.754-1.795-1.44-3.762-1.952-5.866 1.991-.203 4.023-.322 6.079-.351zm0 2v5.903c-.94-1.409-2.13-3.378-3.264-5.754 1.074-.084 2.165-.13 3.264-.149zm2 0c1.098.02 2.188.065 3.26.149-1.133 2.372-2.321 4.34-3.26 5.75zm0-2v-6c2.056.029 4.087.148 6.077.35-.513 2.104-1.2 4.07-1.955 5.866-1.352-.123-2.73-.192-4.122-.216zm0-8v-4.021h6.966c-.053 1.507-.215 2.981-.474 4.405-2.126-.223-4.296-.354-6.492-.384zm0-6.021v-4.021c2.196-.03 4.367-.161 6.493-.384.259 1.424.42 2.898.473 4.405zm0-6.021v-6c1.393-.024 2.773-.094 4.127-.217.754 1.795 1.44 3.762 1.952 5.866-1.991.203-4.023.322-6.079.351zm0-8v-5.903c.94 1.409 2.13 3.378 3.264 5.754-1.073.084-2.165.13-3.264.149zm-2 0c-1.098-.02-2.188-.065-3.26-.149 1.133-2.372 2.321-4.34 3.26-5.75zm0 2v6c-2.056-.029-4.087-.148-6.077-.35.513-2.104 1.2-4.07 1.955-5.866 1.352.123 2.73.192 4.122.216zm0 8v4.021h-6.966c.053-1.507.215-2.981.474-4.405 2.126.223 4.296.354 6.492.384zm0 6.021v4.021c-2.196.03-4.367.161-6.493.384-.259-1.424-.42-2.898-.473-4.405zm-8.093 6.6c.489 2.096 1.14 4.065 1.865 5.867-1.809.237-3.55.569-5.211.978-.982-1.743-1.789-3.696-2.386-5.805 1.841-.427 3.756-.778 5.732-1.04zm2.688 7.782c1.483 3.239 3.111 5.798 4.238 7.402-3.555-.695-6.743-3.069-9.159-6.554 1.57-.361 3.218-.645 4.921-.848zm-3.745 5.25c-1.805-.892-3.476-2.015-4.976-3.328.575-.197 1.169-.382 1.776-.555.951 1.462 2.026 2.766 3.2 3.883zm12.317 2.151c1.127-1.603 2.755-4.163 4.238-7.402 1.703.203 3.351.487 4.921.848-2.417 3.485-5.605 5.859-9.159 6.554zm11.183-6.034c.608.173 1.201.357 1.776.555-1.501 1.313-3.171 2.436-4.976 3.328 1.174-1.117 2.249-2.421 3.2-3.883zm-6.122-3.282c.726-1.802 1.376-3.772 1.865-5.867 1.976.262 3.891.613 5.731 1.041-.597 2.108-1.404 4.061-2.386 5.804-1.66-.408-3.401-.741-5.21-.978zm2.265-7.828c.263-1.496.435-3.046.486-4.639h6.003c-.059 1.974-.291 3.885-.677 5.701-1.868-.436-3.811-.792-5.812-1.062zm8.489-4.639h4.993c-.114 2.641-.677 5.166-1.611 7.505-1.316-.487-2.684-.938-4.123-1.328.425-1.969.68-4.039.741-6.177zm0-2c-.061-2.138-.316-4.208-.741-6.176 1.439-.39 2.807-.841 4.123-1.328.934 2.339 1.498 4.864 1.611 7.505h-4.993zm-2 0h-6.002c-.051-1.593-.224-3.142-.486-4.639 2.001-.27 3.943-.627 5.812-1.062.385 1.816.617 3.727.676 5.701zm-6.889-6.6c-.489-2.096-1.14-4.065-1.865-5.867 1.809-.237 3.55-.569 5.21-.978.982 1.743 1.789 3.696 2.386 5.804-1.84.428-3.755.779-5.731 1.041zm-2.688-7.782c-1.483-3.239-3.111-5.798-4.238-7.402 3.555.695 6.743 3.069 9.159 6.554-1.57.361-3.218.645-4.921.848zm-8.572-7.401c-1.127 1.603-2.755 4.163-4.238 7.402-1.703-.203-3.351-.487-4.921-.848 2.417-3.485 5.605-5.859 9.159-6.554zm-5.061 9.316c-.726 1.802-1.376 3.772-1.865 5.867-1.976-.262-3.891-.613-5.731-1.041.597-2.108 1.404-4.061 2.386-5.805 1.66.409 3.401.742 5.21.979zm-2.265 7.828c-.263 1.496-.435 3.046-.486 4.639h-6.003c.059-1.974.291-3.885.677-5.701 1.868.436 3.811.792 5.812 1.062zm-8.489 4.639h-4.993c.114-2.641.677-5.166 1.611-7.505 1.316.487 2.684.938 4.123 1.328-.425 1.969-.68 4.039-.741 6.177zm0 2c.061 2.138.316 4.208.741 6.176-1.439.39-2.807.841-4.123 1.328-.934-2.338-1.497-4.863-1.611-7.504zm34.709 14.762c-.747-.281-1.523-.542-2.325-.782.965-1.785 1.758-3.757 2.354-5.865 1.32.359 2.573.774 3.783 1.218-1.007 1.993-2.294 3.819-3.812 5.429zm3.812-26.094c-1.21.444-2.463.859-3.783 1.218-.597-2.108-1.389-4.08-2.354-5.865.803-.241 1.579-.501 2.325-.782 1.518 1.609 2.805 3.435 3.812 5.429zm-5.413-6.972c-.575.197-1.169.381-1.776.555-.952-1.462-2.026-2.765-3.2-3.883 1.806.891 3.476 2.014 4.976 3.328zm-28.476.554c-.608-.173-1.201-.357-1.776-.555 1.501-1.313 3.171-2.436 4.976-3.328-1.174 1.118-2.248 2.422-3.2 3.883zm-3.377.988c.747.281 1.523.542 2.325.782-.965 1.785-1.758 3.757-2.354 5.865-1.32-.359-2.573-.774-3.783-1.218 1.007-1.993 2.294-3.819 3.812-5.429z"/><path d="m57 60h2v2h-2z"/><path d="m49 60h2v2h-2z"/><path d="m40 60h2v2h-2z"/><path d="m5 60h2v2h-2z"/><path d="m13 60h2v2h-2z"/><path d="m22 60h2v2h-2z"/><path d="m31 60h2v2h-2z"/></g></svg>