<?xml version="1.0" encoding="UTF-8" standalone="no"?>
<!-- Created with Inkscape (http://www.inkscape.org/) -->

<svg
   xmlns:dc="http://purl.org/dc/elements/1.1/"
   xmlns:cc="http://creativecommons.org/ns#"
   xmlns:rdf="http://www.w3.org/1999/02/22-rdf-syntax-ns#"
   xmlns:svg="http://www.w3.org/2000/svg"
   xmlns="http://www.w3.org/2000/svg"
   xmlns:sodipodi="http://sodipodi.sourceforge.net/DTD/sodipodi-0.dtd"
   xmlns:inkscape="http://www.inkscape.org/namespaces/inkscape"
   width="6.3740401mm"
   height="6.7391mm"
   viewBox="0 0 6.3740401 6.7391"
   version="1.1"
   id="svg1708"
   inkscape:version="0.92.4 (5da689c313, 2019-01-14)"
   sodipodi:docname="rabbit-only-orange.svg">
  <defs
     id="defs1702" />
  <sodipodi:namedview
     id="base"
     pagecolor="#ffffff"
     bordercolor="#666666"
     borderopacity="1.0"
     inkscape:pageopacity="0.0"
     inkscape:pageshadow="2"
     inkscape:zoom="15.839192"
     inkscape:cx="-14.189889"
     inkscape:cy="21.37826"
     inkscape:document-units="mm"
     inkscape:current-layer="layer1"
     showgrid="false"
     fit-margin-top="0"
     fit-margin-left="0"
     fit-margin-right="0"
     fit-margin-bottom="0"
     inkscape:window-width="3838"
     inkscape:window-height="2128"
     inkscape:window-x="3840"
     inkscape:window-y="30"
     inkscape:window-maximized="1" />
  <metadata
     id="metadata1705">
    <rdf:RDF>
      <cc:Work
         rdf:about="">
        <dc:format>image/svg+xml</dc:format>
        <dc:type
           rdf:resource="http://purl.org/dc/dcmitype/StillImage" />
        <dc:title></dc:title>
      </cc:Work>
    </rdf:RDF>
  </metadata>
  <g
     inkscape:label="Layer 1"
     inkscape:groupmode="layer"
     id="layer1"
     transform="translate(-74.480627,-113.33581)">
    <path
       d="m 80.531877,116.0706 h -1.99079 c -0.15921,-0.019 -0.28044,-0.15924 -0.28044,-0.32432 v -2.08908 c 0,-0.17823 -0.1446,-0.32139 -0.32133,-0.32139 h -0.6967 c -0.17819,0 -0.32133,0.14462 -0.32133,0.32139 v 2.11099 c -0.009,0.15924 -0.14022,0.2878 -0.29796,0.30241 h -0.52144 c -0.15336,-0.019 -0.27167,-0.14755 -0.28189,-0.30241 v -2.11099 c 0,-0.17823 -0.1446,-0.32139 -0.32133,-0.32139 h -0.69671 c -0.17819,0 -0.32133,0.14462 -0.32133,0.32139 v 2.7348 3.36151 c 0,0.17823 0.1446,0.3214 0.32133,0.3214 h 0.69671 1.74395 0.6967 2.59402 c 0.17819,0 0.32133,-0.14463 0.32133,-0.3214 V 116.392 c -0.001,-0.17823 -0.1446,-0.3214 -0.32279,-0.3214 z m -0.91725,2.30529 c 0,0.17823 -0.1446,0.3214 -0.32133,0.3214 h -0.69671 c -0.17819,0 -0.32133,-0.14463 -0.32133,-0.3214 v -0.6574 c 0,-0.17823 0.1446,-0.3214 0.32133,-0.3214 h 0.69671 c 0.17819,0 0.32133,0.14463 0.32133,0.3214 z"
       id="Shape"
       inkscape:connector-curvature="0"
       style="fill:#ff6600;fill-rule:nonzero;stroke:none;stroke-width:0.26458332" />
  </g>
</svg>
