<svg height="512" viewBox="0 0 64 64" width="512" xmlns="http://www.w3.org/2000/svg"><g id="Source_code_config" data-name="Source code config"><path d="m7 9h44a0 0 0 0 1 0 0v50a2 2 0 0 1 -2 2h-40a2 2 0 0 1 -2-2v-50a0 0 0 0 1 0 0z" fill="#ffeb99"/><path d="m7 30v29a2 2 0 0 0 2 2h29a30.982 30.982 0 0 1 -31-31z" fill="#ffde55"/><path d="m49 3h-40a2.006 2.006 0 0 0 -2 2v4h44v-4a2.006 2.006 0 0 0 -2-2z" fill="#004fac"/><path d="m57.16 54.33v.01l2.33 2.32-2.83 2.83-2.33-2.33a7.031 7.031 0 0 1 -1.33.55v3.29h-4v-3.29a7.031 7.031 0 0 1 -1.33-.55l-2.33 2.33-2.83-2.83 2.33-2.32v-.01a7.031 7.031 0 0 1 -.55-1.33h-3.29v-4h3.29a7.031 7.031 0 0 1 .55-1.33l-2.33-2.33 2.83-2.83 2.32 2.33h.01a7.031 7.031 0 0 1 1.33-.55v-3.29h4v3.29a7.031 7.031 0 0 1 1.33.55h.01l2.32-2.33 2.83 2.83-2.33 2.33a7.031 7.031 0 0 1 .55 1.33h3.29v4h-3.29a7.031 7.031 0 0 1 -.55 1.33z" fill="#ff9811"/><circle cx="51" cy="51" fill="#f1f2f2" r="3"/><path d="m11 51v3h20l-3-3z" fill="#d80027"/><path d="m28 51 3-3h-20v3z" fill="#ff9811"/><path d="m31 54 6-3-6-3-3 3z" fill="#d1d3d4"/><path d="m11 54v-3-3h-4v6z" fill="#006df0"/><path d="m6 54h1v-6h-1a3 3 0 0 0 0 6z" fill="#f1f2f2"/><path d="m41 62h-32a3 3 0 0 1 -3-3v-2a1 1 0 0 1 2 0v2a1 1 0 0 0 1 1h32a1 1 0 0 1 0 2z"/><path d="m20 44a1 1 0 0 1 -.554-.168l-3-2a1 1 0 0 1 0-1.664l3-2a1 1 0 1 1 1.11 1.664l-1.756 1.168 1.752 1.168a1 1 0 0 1 -.552 1.832z"/><path d="m33 44a1 1 0 0 1 -.556-1.832l1.756-1.168-1.752-1.168a1 1 0 0 1 1.11-1.664l3 2a1 1 0 0 1 0 1.664l-3 2a1 1 0 0 1 -.558.168z"/><path d="m23 45a1 1 0 0 1 -.949-1.316l2-6a1 1 0 0 1 1.9.632l-2 6a1 1 0 0 1 -.951.684z"/><path d="m26 42h2v2h-2z"/><path d="m29 42h2v2h-2z"/><path d="m21 29h2v2h-2z"/><path d="m25 29h12v2h-12z"/><path d="m39 29h4v2h-4z"/><path d="m17 33h6v2h-6z"/><path d="m25 33h2v2h-2z"/><path d="m10 5h2v2h-2z"/><path d="m14 5h2v2h-2z"/><path d="m18 5h2v2h-2z"/><path d="m49 2h-40a3 3 0 0 0 -3 3v39a1 1 0 0 0 2 0v-34h42v27a1 1 0 0 0 2 0v-32a3 3 0 0 0 -3-3zm-41 6v-3a1 1 0 0 1 1-1h40a1 1 0 0 1 1 1v3z"/><path d="m13 14a1 1 0 0 0 -1 1v29a1 1 0 0 0 2 0v-29a1 1 0 0 0 -1-1z"/><path d="m20 19a1 1 0 0 0 .556-1.832l-1.756-1.168 1.752-1.168a1 1 0 1 0 -1.11-1.664l-3 2a1 1 0 0 0 0 1.664l3 2a1 1 0 0 0 .558.168z"/><path d="m27.168 18.555a1 1 0 0 0 1.387.277l3-2a1 1 0 0 0 0-1.664l-3-2a1 1 0 0 0 -1.11 1.664l1.755 1.168-1.752 1.168a1 1 0 0 0 -.28 1.387z"/><path d="m25.316 12.051a1 1 0 0 0 -1.265.633l-2 6a1 1 0 0 0 1.9.632l2-6a1 1 0 0 0 -.635-1.265z"/><path d="m17 21h6v2h-6z"/><path d="m25 21h2v2h-2z"/><path d="m21 25h12v2h-12z"/><path d="m39 25h9v2h-9z"/><path d="m35 25h2v2h-2z"/><path d="m51 55a4 4 0 1 1 4-4 4 4 0 0 1 -4 4zm0-6a2 2 0 1 0 2 2 2 2 0 0 0 -2-2z"/><path d="m53 62h-4a1 1 0 0 1 -1-1v-2.582l-.123-.051-1.83 1.83a1 1 0 0 1 -1.414 0l-2.83-2.83a1 1 0 0 1 0-1.415l1.831-1.824-.052-.128h-2.582a1 1 0 0 1 -1-1v-4a1 1 0 0 1 1-1h2.582c.017-.042.033-.083.051-.123l-1.83-1.83a1 1 0 0 1 0-1.414l2.83-2.83a1 1 0 0 1 .707-.293 1 1 0 0 1 .708.294l1.822 1.831.13-.053v-2.582a1 1 0 0 1 1-1h4a1 1 0 0 1 1 1v2.582l.129.053 1.822-1.835a1 1 0 0 1 .708-.294 1 1 0 0 1 .707.293l2.83 2.83a1 1 0 0 1 0 1.414l-1.83 1.83c.018.04.034.081.051.123h2.583a1 1 0 0 1 1 1v4a1 1 0 0 1 -1 1h-2.582l-.053.128 1.835 1.828a1 1 0 0 1 0 1.415l-2.83 2.83a1 1 0 0 1 -1.414 0l-1.83-1.83-.126.051v2.582a1 1 0 0 1 -1 1zm-3-2h2v-2.29a1 1 0 0 1 .709-.957 6.051 6.051 0 0 0 1.141-.47 1 1 0 0 1 1.187.17l1.623 1.623 1.414-1.414-1.62-1.614a1 1 0 0 1 -.294-.708 1.039 1.039 0 0 1 .122-.489 5.991 5.991 0 0 0 .471-1.142 1 1 0 0 1 .957-.709h2.29v-2h-2.29a1 1 0 0 1 -.957-.709 5.991 5.991 0 0 0 -.471-1.142 1 1 0 0 1 .171-1.186l1.623-1.623-1.414-1.415-1.613 1.62a1.037 1.037 0 0 1 -1.2.172 6.051 6.051 0 0 0 -1.141-.47 1 1 0 0 1 -.708-.957v-2.29h-2v2.29a1 1 0 0 1 -.709.957 6.051 6.051 0 0 0 -1.141.47 1.036 1.036 0 0 1 -1.2-.172l-1.613-1.62-1.413 1.415 1.623 1.623a1 1 0 0 1 .171 1.186 5.991 5.991 0 0 0 -.471 1.142 1 1 0 0 1 -.957.709h-2.29v2h2.29a1 1 0 0 1 .957.709 5.991 5.991 0 0 0 .471 1.142 1 1 0 0 1 .122.479 1.022 1.022 0 0 1 -.294.718l-1.62 1.614 1.414 1.414 1.623-1.623a1 1 0 0 1 1.187-.17 6.051 6.051 0 0 0 1.141.47 1 1 0 0 1 .709.957z"/><path d="m37.447 50.105-6-3a1 1 0 0 0 -.447-.105h-25a4 4 0 0 0 0 8h25a1 1 0 0 0 .447-.1l6-3a1 1 0 0 0 0-1.79zm-31.447 2.895a2 2 0 0 1 0-4zm6-4h16.586l-1 1h-15.586zm-2 4h-2v-4h2zm2-1h15.586l1 1h-16.586zm19.2.783-1.786-1.783 1.786-1.783 3.564 1.783z"/></g></svg>