<?xml version="1.0" encoding="iso-8859-1"?>
<!-- Generator: Adobe Illustrator 19.0.0, SVG Export Plug-In . SVG Version: 6.00 Build 0)  -->
<svg version="1.1" id="Layer_1" xmlns="http://www.w3.org/2000/svg" xmlns:xlink="http://www.w3.org/1999/xlink" x="0px" y="0px"
	 viewBox="0 0 512.002 512.002" style="enable-background:new 0 0 512.002 512.002;" xml:space="preserve">
<path style="fill:#0079F1;" d="M447.589,183.336h-94.648c2.873,0,5.224,2.351,5.224,5.224v40.042c0,2.873-2.351,5.224-5.224,5.224
	h94.648c2.873,0,5.224-2.351,5.224-5.224V188.56C452.814,185.687,450.463,183.336,447.589,183.336z"/>
<path style="fill:#00A9FF;" d="M480.191,233.827h-69.409c2.873,0,5.224,2.351,5.224,5.224v40.042c0,0.112-0.026,0.217-0.033,0.327
	h69.409c0.007-0.11,0.033-0.215,0.033-0.327v-40.042C485.415,236.177,483.064,233.827,480.191,233.827z"/>
<path style="fill:#F39600;" d="M294.542,282.821c1.562-1.957,4.218-3.4,6.581-3.4h114.85c0.007-0.11,0.033-0.215,0.033-0.327
	v-40.042c0-2.873-2.351-5.224-5.224-5.224H298.187c-2.873,0-5.224,2.351-5.224,5.224v40.042
	C292.962,280.551,293.57,281.87,294.542,282.821z"/>
<path style="fill:#00A9FF;" d="M268.979,326.172c2.892,0,6.253-2.148,7.467-4.773l16.128-34.861c-0.778-1.911-2.653-3.27-4.836-3.27
	H175.143c-2.873,0-5.224,2.351-5.224,5.224v37.681h99.061V326.172z"/>
<g>
	<path style="fill:#35D34F;" d="M66.865,329.337v-46.07H41.187c-2.873,0-5.224,2.351-5.224,5.224v40.042
		c0,2.873,2.351,5.224,5.224,5.224h28.155C67.863,332.833,66.865,331.201,66.865,329.337z"/>
	<path style="fill:#35D34F;" d="M164.037,283.267h-26.729v46.07c0,1.864-0.998,3.496-2.478,4.421h29.206
		c2.873,0,5.224-2.351,5.224-5.224v-40.042C169.262,285.618,166.911,283.267,164.037,283.267z"/>
</g>
<path style="fill:#0079F1;" d="M292.962,279.094c0,2.873-2.351,5.224-5.224,5.224H175.143c-2.873,0-5.224-2.351-5.224-5.224v-40.042
	c0-2.873,2.351-5.224,5.224-5.224h112.595c2.873,0,5.224,2.351,5.224,5.224V279.094z"/>
<path style="opacity:0.1;enable-background:new    ;" d="M192.512,326.172v-37.68c0-2.873,2.351-5.224,5.224-5.224h-22.593
	c-2.873,0-5.224,2.351-5.224,5.224v37.681h22.593V326.172z"/>
<g style="opacity:0.1;">
	<path d="M192.512,279.094v-40.042c0-2.873,2.351-5.224,5.224-5.224h-22.593c-2.873,0-5.224,2.351-5.224,5.224v40.042
		c0,2.873,2.351,5.224,5.224,5.224h22.594C194.863,284.318,192.512,281.967,192.512,279.094z"/>
</g>
<path style="fill:#FF5E97;" d="M352.94,183.336h-82.758v6.658c0,3.22-2.634,5.854-5.854,5.854h-29.206v32.755
	c0,2.873,2.351,5.224,5.224,5.224H352.94c2.873,0,5.224-2.351,5.224-5.224v-40.042C358.165,185.687,355.814,183.336,352.94,183.336z
	"/>
<rect x="89.421" y="77.21" style="fill:#FFFA94;" width="25.328" height="117.141"/>
<rect x="89.421" y="194.348" style="fill:#BFBFBF;" width="25.328" height="70.867"/>
<path style="fill:#FFCB00;" d="M137.308,329.337c0,2.873-2.351,5.224-5.224,5.224H72.089c-2.873,0-5.224-2.351-5.224-5.224v-58.891
	c0-2.873,2.351-5.224,5.224-5.224h59.995c2.873,0,5.224,2.351,5.224,5.224V329.337z"/>
<path style="opacity:0.1;enable-background:new    ;" d="M89.426,326.172v-55.727c0-2.873,2.351-5.224,5.224-5.224H72.089
	c-2.873,0-5.224,2.351-5.224,5.224v55.727H89.426z"/>
<path style="fill:#35D34F;" d="M270.182,189.994c0,3.22-2.634,5.854-5.854,5.854h-48.393c-3.22,0-5.854-2.634-5.854-5.854v-44.871
	c0-3.219,2.634-5.854,5.854-5.854h48.393c3.22,0,5.854,2.634,5.854,5.854V189.994z"/>
<g style="opacity:0.1;">
	<path d="M233.01,189.994v-44.871c0-3.219,2.634-5.854,5.854-5.854h-22.931c-3.22,0-5.854,2.634-5.854,5.854v44.871
		c0,3.22,2.634,5.854,5.854,5.854h22.931C235.645,195.848,233.01,193.213,233.01,189.994z"/>
</g>
<circle style="fill:#FED15B;" cx="240.134" cy="97.08" r="13.667"/>
<path style="fill:#BFBFBF;" d="M500.664,279.421H301.123c-2.892,0-6.253,2.148-7.467,4.774l-17.211,37.203
	c-1.214,2.626-4.573,4.773-7.467,4.773H11.644c-2.892,0-4.479,2.235-3.529,4.966l33.643,96.583c0.2,0.573,0.513,1.115,0.882,1.628
	c10.294-3.375,19.321-9.547,26.163-17.638c10.61,12.546,26.455,20.519,44.169,20.519c17.715,0,33.559-7.973,44.169-20.519
	c10.61,12.546,26.455,20.519,44.17,20.519s33.559-7.973,44.17-20.519c10.61,12.546,26.455,20.519,44.169,20.519
	c17.715,0,33.559-7.973,44.17-20.519c10.61,12.546,26.455,20.519,44.169,20.519c17.715,0,33.559-7.973,44.169-20.519
	c4.573,5.408,10.124,9.96,16.372,13.395l65.181-140.912C504.928,281.569,503.556,279.421,500.664,279.421z"/>
<path style="fill:#0052AC;" d="M157.142,411.712c10.61,12.546,26.455,20.519,44.17,20.519s33.559-7.973,44.17-20.519
	c10.61,12.546,26.455,20.519,44.169,20.519c17.715,0,33.559-7.973,44.17-20.519c10.61,12.546,26.455,20.519,44.169,20.519
	c17.715,0,33.559-7.973,44.169-20.519c4.573,5.407,10.124,9.96,16.372,13.395l16.443-35.548H28.465l13.293,38.161
	c0.2,0.573,0.513,1.115,0.882,1.628c10.294-3.375,19.321-9.547,26.163-17.638c10.61,12.546,26.455,20.519,44.169,20.519
	C130.688,432.231,146.532,424.257,157.142,411.712z"/>
<circle style="fill:#FFFFFF;" cx="326.086" cy="320.663" r="15.757"/>
<circle style="fill:#00A9FF;" cx="379.176" cy="320.663" r="15.746"/>
<circle style="fill:#0052AC;" cx="432.256" cy="320.663" r="15.757"/>
<path style="fill:#BFBFBF;" d="M251.96,38.228H134.162v27.228l117.821-17.46c1.137-0.168,2.068-1.247,2.068-2.396v-5.283
	C254.05,39.168,253.111,38.228,251.96,38.228z"/>
<path style="fill:#FFCB00;" d="M134.162,37.141c0-2.873-2.351-5.224-5.224-5.224H75.236c-2.873,0-5.224,2.351-5.224,5.224v34.845
	c0,2.873,2.351,5.224,5.224,5.224h53.702c2.873,0,5.224-2.351,5.224-5.224V37.141H134.162z"/>
<g style="opacity:0.1;">
	<path d="M92.573,71.986V37.141c0-2.873,2.351-5.224,5.224-5.224H75.236c-2.873,0-5.224,2.351-5.224,5.224v34.845
		c0,2.873,2.351,5.224,5.224,5.224h22.561C94.924,77.21,92.573,74.859,92.573,71.986z"/>
</g>
<g style="opacity:0.1;">
	<path d="M42.64,429.349c7.538-2.472,14.39-6.446,20.207-11.577L32.67,331.138c-0.951-2.731,0.636-4.966,3.529-4.966H11.644
		c-2.892,0-4.479,2.235-3.529,4.966l33.643,96.583C41.958,428.295,42.271,428.837,42.64,429.349z"/>
</g>
<path d="M349.677,320.662c0-13.009-10.581-23.592-23.589-23.592c-13.007,0-23.589,10.584-23.589,23.592s10.581,23.592,23.589,23.592
	C339.096,344.254,349.677,333.671,349.677,320.662z M326.089,328.581c-4.364,0-7.916-3.553-7.916-7.919s3.55-7.919,7.916-7.919
	c4.364,0,7.916,3.553,7.916,7.919C334.004,325.029,330.454,328.581,326.089,328.581z"/>
<path d="M402.763,320.662c0-13.009-10.581-23.592-23.588-23.592s-23.589,10.584-23.589,23.592s10.581,23.592,23.589,23.592
	C392.182,344.254,402.763,333.671,402.763,320.662z M371.259,320.662c0-4.367,3.55-7.919,7.916-7.919
	c4.364,0,7.915,3.553,7.915,7.919c0,4.367-3.55,7.919-7.915,7.919C374.811,328.581,371.259,325.029,371.259,320.662z"/>
<path d="M455.849,320.662c0-13.009-10.582-23.592-23.589-23.592s-23.589,10.584-23.589,23.592s10.583,23.592,23.589,23.592
	C445.267,344.254,455.849,333.671,455.849,320.662z M424.344,320.662c0-4.367,3.551-7.919,7.916-7.919
	c4.364,0,7.916,3.553,7.916,7.919c0,4.367-3.55,7.919-7.916,7.919C427.896,328.581,424.344,325.029,424.344,320.662z"/>
<path d="M62.382,362.265c-1.463,1.452-2.299,3.479-2.299,5.538c0,2.058,0.836,4.085,2.299,5.538
	c1.452,1.463,3.469,2.299,5.538,2.299c2.058,0,4.085-0.836,5.538-2.299c1.463-1.452,2.299-3.479,2.299-5.538
	c0-2.058-0.836-4.085-2.299-5.538c-1.452-1.463-3.479-2.299-5.538-2.299C65.851,359.966,63.835,360.802,62.382,362.265z"/>
<path d="M112.536,362.265c-1.463,1.452-2.299,3.479-2.299,5.538c0,2.058,0.836,4.085,2.299,5.538
	c1.452,1.463,3.479,2.299,5.538,2.299s4.085-0.836,5.538-2.299c1.463-1.452,2.299-3.479,2.299-5.538
	c0-2.058-0.836-4.085-2.299-5.538c-1.452-1.463-3.479-2.299-5.538-2.299C116.016,359.966,113.989,360.802,112.536,362.265z"/>
<path d="M162.69,362.265c-1.463,1.452-2.299,3.479-2.299,5.538c0,2.058,0.836,4.085,2.299,5.538
	c1.452,1.463,3.479,2.299,5.538,2.299c2.058,0,4.085-0.836,5.538-2.299c1.463-1.452,2.299-3.479,2.299-5.538
	c0-2.058-0.836-4.085-2.299-5.538c-1.452-1.463-3.479-2.299-5.538-2.299C166.17,359.966,164.143,360.802,162.69,362.265z"/>
<path d="M212.844,362.265c-1.463,1.452-2.299,3.479-2.299,5.538c0,2.058,0.836,4.085,2.299,5.538
	c1.452,1.463,3.469,2.299,5.538,2.299c2.058,0,4.085-0.836,5.538-2.299c1.463-1.452,2.299-3.479,2.299-5.538
	c0-2.058-0.836-4.085-2.299-5.538c-1.452-1.463-3.479-2.299-5.538-2.299C216.313,359.966,214.297,360.802,212.844,362.265z"/>
<path d="M262.998,362.265c-1.463,1.452-2.299,3.479-2.299,5.538c0,2.069,0.836,4.085,2.299,5.538
	c1.452,1.463,3.479,2.299,5.538,2.299c2.069,0,4.085-0.836,5.538-2.299c1.463-1.452,2.299-3.469,2.299-5.538
	c0-2.058-0.836-4.085-2.299-5.538c-1.452-1.463-3.479-2.299-5.538-2.299C266.478,359.966,264.451,360.802,262.998,362.265z"/>
<path d="M318.69,359.966c-2.069,0-4.085,0.836-5.538,2.299c-1.463,1.452-2.299,3.469-2.299,5.538s0.836,4.085,2.299,5.538
	c1.452,1.463,3.479,2.299,5.538,2.299c2.069,0,4.085-0.836,5.538-2.299c1.463-1.452,2.299-3.469,2.299-5.538
	c0-2.069-0.836-4.085-2.299-5.538C322.776,360.802,320.759,359.966,318.69,359.966z"/>
<path d="M363.307,362.265c-1.463,1.452-2.299,3.479-2.299,5.538c0,2.069,0.836,4.085,2.299,5.538
	c1.452,1.463,3.479,2.299,5.538,2.299c2.069,0,4.085-0.836,5.538-2.299c1.463-1.452,2.299-3.469,2.299-5.538
	c0-2.058-0.836-4.085-2.299-5.538c-1.452-1.463-3.479-2.299-5.538-2.299C366.786,359.966,364.759,360.802,363.307,362.265z"/>
<path d="M413.461,362.265c-1.463,1.452-2.299,3.479-2.299,5.538c0,2.058,0.836,4.085,2.299,5.538
	c1.452,1.463,3.479,2.299,5.538,2.299s4.085-0.836,5.538-2.299c1.463-1.452,2.299-3.479,2.299-5.538
	c0-2.058-0.836-4.085-2.299-5.538c-1.452-1.463-3.469-2.299-5.538-2.299C416.94,359.966,414.913,360.802,413.461,362.265z"/>
<path d="M333.82,470.834c12.024,10.946,27.709,17.088,44.169,17.088c15.804,0,31.079-5.703,43.011-16.06
	c3.268-2.837,3.618-7.786,0.782-11.055c-2.837-3.268-7.786-3.619-11.055-0.782c-9.081,7.883-20.707,12.223-32.738,12.223
	c-14.732,0-28.649-6.467-38.186-17.742c-1.489-1.761-3.678-2.776-5.984-2.776c-2.306,0-4.494,1.016-5.984,2.776
	c-9.537,11.275-23.454,17.742-38.186,17.742c-12.454,0-24.388-4.614-33.605-12.994c-3.203-2.912-8.158-2.677-11.07,0.527
	c-2.912,3.203-2.676,8.158,0.527,11.07c12.107,11.008,27.786,17.07,44.148,17.07C306.112,487.922,321.796,481.78,333.82,470.834z"/>
<path d="M112.973,487.922c19.352,0,37.632-8.49,50.153-23.293c2.795-3.305,2.381-8.249-0.923-11.044
	c-3.304-2.794-8.249-2.381-11.044,0.923c-9.537,11.275-23.454,17.742-38.186,17.742s-28.649-6.467-38.186-17.742
	c-2.795-3.304-7.738-3.719-11.044-0.923c-3.305,2.795-3.718,7.739-0.923,11.044C75.341,479.432,93.621,487.922,112.973,487.922z"/>
<path d="M32.102,423.821c-2.454,0.37-4.947,0.574-7.468,0.574c-4.328,0-7.837,3.509-7.837,7.837s3.509,7.837,7.837,7.837
	c16.46,0,32.146-6.143,44.169-17.088c12.024,10.945,27.71,17.088,44.169,17.088c16.46,0,32.146-6.143,44.169-17.088
	c12.024,10.945,27.71,17.088,44.17,17.088s32.146-6.143,44.17-17.088c12.024,10.945,27.709,17.088,44.169,17.088
	s32.146-6.143,44.17-17.088c12.024,10.945,27.71,17.088,44.169,17.088c16.46,0,32.146-6.143,44.169-17.088
	c12.024,10.945,27.71,17.088,44.169,17.088c4.328,0,7.837-3.509,7.837-7.837s-3.509-7.837-7.837-7.837
	c-6.012,0-11.883-1.094-17.382-3.136l27.072-58.525c1.817-3.929,0.106-8.586-3.822-10.403c-3.93-1.818-8.586-0.106-10.403,3.822
	l-11.828,25.57H138.972c-4.328,0-7.837,3.509-7.837,7.837s3.509,7.837,7.837,7.837h303.744l-7.463,16.133
	c-2.563-2.04-4.954-4.329-7.11-6.878c-1.489-1.761-3.678-2.776-5.984-2.776c-2.306,0-4.495,1.016-5.984,2.776
	c-9.536,11.276-23.454,17.743-38.186,17.743s-28.649-6.467-38.186-17.743c-1.489-1.761-3.678-2.776-5.984-2.776
	c-2.306,0-4.495,1.016-5.984,2.776c-9.536,11.276-23.454,17.743-38.186,17.743c-14.732,0-28.649-6.467-38.186-17.743
	c-1.489-1.761-3.678-2.776-5.984-2.776s-4.495,1.016-5.984,2.776c-9.536,11.276-23.454,17.743-38.186,17.743
	c-14.732,0-28.649-6.467-38.186-17.743c-1.489-1.761-3.678-2.776-5.984-2.776c-2.306,0-4.495,1.016-5.983,2.776
	c-9.537,11.276-23.454,17.743-38.186,17.743s-28.651-6.467-38.186-17.743c-1.489-1.761-3.678-2.776-5.984-2.776
	s-4.495,1.016-5.984,2.776c-4.43,5.238-9.813,9.423-15.777,12.418l-7.549-21.673h61.862c4.328,0,7.837-3.509,7.837-7.837
	s-3.509-7.837-7.837-7.837H34.029l-16.621-47.715h251.566c5.951,0,12.083-3.92,14.578-9.319l17.135-37.04
	c0.143-0.144,0.422-0.323,0.612-0.392h192.364l-17.853,38.595c-1.817,3.929-0.106,8.586,3.823,10.403
	c3.928,1.817,8.585,0.106,10.403-3.823l20.792-44.95c1.723-3.727,1.541-7.693-0.498-10.882c-2.039-3.188-5.561-5.015-9.666-5.015
	h-7.412v-32.533c0-7.202-5.859-13.061-13.061-13.061h-19.54v-37.43c0-7.202-5.859-13.061-13.061-13.061H278.019v-30.378
	c0-7.549-6.142-13.691-13.691-13.691h-2l-9.729-16.855c5.462-3.905,9.039-10.284,9.039-17.495c0-9.094-5.68-16.87-13.671-20.01
	V56.513l5.163-0.765c4.992-0.739,8.756-5.101,8.756-10.148v-5.283c0-5.473-4.453-9.926-9.926-9.926H140.098
	c-2.292-3.775-6.43-6.311-11.16-6.311H75.236c-7.202,0-13.061,5.86-13.061,13.061v34.845c0,7.202,5.859,13.061,13.061,13.061h6.35
	v172.338H72.09c-7.202,0-13.061,5.859-13.061,13.061v4.985H41.187c-7.201,0-13.061,5.859-13.061,13.061v29.845H11.644
	c-3.949,0-7.445,1.733-9.593,4.755c-2.148,3.023-2.635,6.895-1.336,10.625L32.102,423.821z M161.425,318.335h-16.28v-27.232h16.28
	V318.335z M285.126,276.482h-22.858c-4.328,0-7.837,3.509-7.837,7.837s3.509,7.837,7.837,7.837h19.072l-11.93,25.79
	c-0.143,0.144-0.422,0.323-0.612,0.392h-91.699v-26.181h52.779c4.328,0,7.837-3.509,7.837-7.837s-3.509-7.837-7.837-7.837h-52.122
	v-34.817h107.37V276.482z M408.169,271.584H301.123c-0.108,0-0.215,0.01-0.324,0.014v-29.935h107.37V271.584z M477.578,241.663
	v29.921h-53.736v-29.921H477.578z M366.001,191.173h78.975v34.817h-78.975V191.173z M277.959,191.173h72.369v34.817h-107.37v-22.306
	h21.37C271.479,203.685,277.358,198.171,277.959,191.173z M262.345,147.104v40.907h-44.429v-40.907H262.345z M236.03,131.431
	l4.1-7.103l4.1,7.103H236.03z M240.131,91.243c3.217,0,5.835,2.618,5.835,5.838s-2.617,5.839-5.835,5.839
	c-3.217,0-5.836-2.619-5.836-5.839C234.296,93.862,236.914,91.243,240.131,91.243z M141.999,46.064h69.562l-69.562,10.309
	L141.999,46.064L141.999,46.064z M141.987,72.219l90.308-13.384v18.234c-7.991,3.142-13.672,10.917-13.672,20.01
	c0,7.212,3.579,13.591,9.04,17.495l-9.729,16.855h-2c-7.549,0-13.691,6.142-13.691,13.691v44.871
	c0,7.549,6.142,13.691,13.691,13.691h11.351v22.306h-52.141c-7.202,0-13.061,5.859-13.061,13.061v36.381h-16.937v-4.985
	c0-7.202-5.859-13.061-13.061-13.061h-9.496v-9.741c0-4.328-3.509-7.837-7.837-7.837c-4.328,0-7.837,3.509-7.837,7.837v9.741h-9.657
	v-55.193h9.656v14.106c0,4.328,3.509,7.837,7.837,7.837c4.328,0,7.837-3.509,7.837-7.837V85.047h6.351
	C136.061,85.047,141.861,79.312,141.987,72.219z M106.915,107.106v8.359h-9.657v-8.359H106.915z M97.258,91.433v-6.386h9.656v6.386
	H97.258z M106.915,131.138v8.359h-9.657v-8.359C97.258,131.138,106.915,131.138,106.915,131.138z M106.915,155.17v8.359h-9.657
	v-8.359H106.915z M106.915,179.202v7.314h-9.657v-7.314H106.915z M77.848,69.373v-29.62h48.478v29.62H77.848z M74.701,273.056h54.77
	v45.279h-54.77V273.056z M43.799,291.104h15.229v27.233H43.799V291.104z"/>
<g>
</g>
<g>
</g>
<g>
</g>
<g>
</g>
<g>
</g>
<g>
</g>
<g>
</g>
<g>
</g>
<g>
</g>
<g>
</g>
<g>
</g>
<g>
</g>
<g>
</g>
<g>
</g>
<g>
</g>
</svg>
