<svg height="512pt" viewBox="0 -18 512.00031 512" width="512pt" xmlns="http://www.w3.org/2000/svg"><path d="m119.464844 408.957031c-5.75-1.714843-10.988282-3.429687-16.007813-5.238281l-.179687-.0625c-1.363282-.5-2.828125-1.03125-4.328125-1.59375l-4.460938-1.667969 2.417969-4.109375c15.320312-26.019531 25.632812-49.703125 31.523438-72.394531 7.277343-28.023437 7.882812-55.703125 1.742187-80.054687-2.429687-9.648438-6.199219-19.984376-11.859375-32.535157-3.484375-7.714843-7.398438-15.609375-11.632812-23.457031l-2.253907-4.175781 4.5-1.515625c3.085938-1.035156 5.925781-2.359375 8.441407-3.9375 12.894531-8.074219 19.808593-23.964844 16.445312-37.785156-.128906-.542969-.601562-.785157-.984375-.785157-.082031 0-.167969.007813-.25.03125-.535156.128907-.875.683594-.742187 1.230469 3.15625 13-3.382813 27.960938-15.542969 35.578125-6.210938 3.882813-13.691407 5.9375-21.628907 5.9375-6.234374 0-12.605468-1.308594-18.425781-3.78125l-.300781-.121094c-1.113281-.480469-2.363281-1.019531-3.722656-1.046875h-.140625c-1.234375 0-2.382813.363282-3.609375 1.148438l-4.765625 3.054687-1.285157-5.515625c-.078124-.332031-.144531-.652344-.210937-.972656-1.894531-8.261719-5.257813-15.238281-9.980469-20.65625-3.664062-4.214844-8.21875-7.429688-13.179687-9.304688l-5.582031-2.113281 4.074218-4.359375c3.296875-3.527344 6.261719-7.292968 8.820313-11.191406 1.667969-2.550781 3.214843-5.222656 4.710937-7.804688l.050782-.089843c2.65625-4.589844 5.164062-8.921875 8.398437-12.867188 9.359375-11.429687 23.585937-17.902343 36.136719-23.617187 4.300781-1.960938 9.175781-4.183594 14.195312-5.050782l5.792969-1-1.195313 5.757813c-.894531 4.308594-1.441406 8.679687-1.617187 12.988281-.023437.558594.417969 1.035156.980469 1.058594.582031 0 1.03125-.433594 1.054687-.980469.703125-17.570312 7.796875-35.199219 19.449219-48.375 10.140625-11.460937 23.996094-19.914062 39.015625-23.800781l5.425781-1.402344-.4375 5.585938c-.824218 10.578125-2.347656 24.371094-6.851562 37.230468-5.398438 15.394532-14.6875 27.660157-26.160156 34.53125-6.089844 3.644532-12.988282 5.921876-18.929688 7.664063-.339844.101563-.523438.324219-.613281.492187-.09375.167969-.179688.433594-.085938.765626.148438.507812.609375.734374.972657.734374.109374 0 .203124-.011718.277343-.03125 4.019531-1.179687 9.253907-2.828124 14.253907-5.152343l4.574218-2.128907 1.03125 4.9375c5.761719 27.601563 23.90625 53.425782 49.789063 70.847657l1.699219 1.148437.0625 2.050782c.003906.027343.007812.082031.027343.15625 3.527344 13.789062.597657 27.585937-2.5 42.195312l-.023437.109375c-1.519532 7.1875-3.09375 14.617187-3.777344 21.96875-.449219 4.753906-.753906 11.785156 1.816406 18.039063 3.335938 8.101562 11.121094 14.558593 23.144532 19.1875 13.195312 5.09375 28.207031 7.675781 47.25 8.125 1.332031.03125 2.652343.039062 3.953124.039062 23.765626 0 40.863282-5.210938 52.273438-15.925781 9.386719-8.808594 15.234375-21.808594 16.472656-36.597657.964844-11.476562-.757812-23.949218-5.265625-38.136718l-1.304687-4.097656 4.183594-1.003907c4.800781-1.148437 9.574218-2.363281 14.1875-3.535156 10.902343-2.777344 22.179687-5.648437 33.480468-7.519531 8.425782-1.398438 16.511719-2.109375 24.027344-2.109375 14.949219 0 28.117188 2.792969 39.136719 8.296875 18.488281 9.230468 33.847656 27.195312 46.957031 54.917968 4.953125 10.46875 9.46875 21.800782 8.972656 33.71875-.289062 6.945313-2.257812 13.496094-4.34375 20.429688l-.105468.347656c-1.457032 4.835938-2.964844 9.832032-3.804688 14.898438-1.589844 9.609375.292969 19.515625 4.910156 25.851562l4.277344 5.875-7.25.472656c-1.589844.101563-3.160156.15625-4.671875.15625-10.289063 0-18.789063-2.421874-25.257813-7.203124-9.800781-7.261719-15.570312-20.050782-17.648437-39.09375-.367187-3.433594-.660156-7.058594-.917969-10.261719-.925781-11.539063-1.878906-23.453125-6.597656-34.191407-7.519531-17.144531-29.441406-37.164062-66.496094-37.164062-1.8125 0-3.628906.058594-5.394531.175781-.417969.027344-.765625.300781-.898437.695313-.128907.398437-.003907.832031.316406 1.109375 7.011718 5.972656 15.777344 14.1875 21.289062 24.699219 5.507813 10.503906 6.75 21.90625 3.40625 31.28125-1.023437 2.859374-2.464844 5.597656-3.859375 8.25-2.257812 4.265624-4.589843 8.671874-5.242187 13.652343-1.335938 10.25 5.183594 20.28125 9.496094 26.917969l47.148437 72.535156-5.0625 1.5625c-9.242187 2.855469-18.761719 5.53125-28.292969 7.953125l-2.988281.761719-1.496094-2.695312c-3.605469-6.5-6.914062-12.648438-10.777343-19.875-3.621094-6.777344-7.507813-14.035157-11.785157-21.695313-4.949219-8.847656-10.066406-18-15.898437-26.679687-3.109375-4.621094-6.625-9.363282-11.277344-12.761719-7.222656-5.253907-15.867188-6.355469-21.847656-6.355469-.542969 0-1.070313.007812-1.582032.023438-7.746093.25-15.519531 2.214843-22.46875 5.683593-2.988281 1.484375-5.839843 3.25-8.597656 4.960938-4.449218 2.75-8.648437 5.347656-13.390625 6.957031-3.65625 1.242188-7.695312 1.875-11.996093 1.875-10.375 0-20.613282-3.636719-27.414063-6.375-2.542969-1.015625-5.15625-2.117188-7.601563-3.160156-10.121093-4.296875-20.585937-8.742188-31.75-9.632813-1.3125-.105469-2.648437-.15625-3.980468-.15625-19.152344 0-38.761719 10.570313-52.457032 28.277344-14.191406 18.339844-20.558593 41.171875-24.523437 59.007813l-.929687 4.195312zm-46.382813-286.589843c-.097656 0-.195312.011718-.289062.039062-.527344.152344-.847657.71875-.691407 1.265625 1.335938 4.703125 5.480469 8.449219 10.308594 9.304687.695313.121094 1.402344.179688 2.128906.179688 4.210938 0 8.328126-2.070312 10.746094-5.398438.324219-.449218.21875-1.089843-.242187-1.421874-.171875-.125-.371094-.1875-.585938-.1875-.160156 0-.558593.039062-.835937.425781-2.03125 2.804687-5.496094 4.550781-9.039063 4.550781-.613281 0-1.226562-.054688-1.816406-.160156-4.074219-.714844-7.574219-3.871094-8.703125-7.855469-.144531-.511719-.609375-.742187-.980469-.742187zm0 0" fill="#f7b36f"/><path d="m265.996094 470.792969c-41.640625 0-83.058594-4.910157-123.105469-14.589844-36.089844-8.726563-61.3125-19.300781-81.78125-34.277344-7.339844-5.382812-15.714844-13.789062-13.953125-23.289062.964844-5.203125 5.253906-9.644531 10.4375-10.792969.804688-.183594 1.65625-.277344 2.578125-.277344 4.410156 0 8.289063 2.296875 12.394531 4.726563l.25.148437c1.25.734375 2.542969 1.492188 3.820313 2.160156 9.191406 4.746094 18.789062 8.390626 26.121093 11.035157 17.054688 6.144531 35.269532 10.914062 55.6875 14.574219 10.378907 1.867187 21.117188 3.40625 32.835938 4.710937 21.628906 2.40625 43.757812 3.625 65.769531 3.625 63.054688 0 125.128907-9.652344 184.496094-28.6875 3.246094-1.046875 6.484375-2.113281 9.734375-3.1875 5.28125-1.746094 10.042969-3.3125 14.871094-4.796875 2.96875-.914062 6.121094-1.804688 9.121094-1.804688 1.402343 0 2.71875.199219 3.90625.589844 5.464843 1.773438 9.910156 9.148438 7.78125 17.296875-1.535157 5.867188-5.859376 11.34375-13.226563 16.746094-11.929687 8.75-26.148437 14.191406-39.738281 18.765625-46.40625 15.628906-95.078125 24.648438-144.660156 26.816406-7.746094.335938-15.597657.507813-23.339844.507813zm0 0" fill="#c67045"/><path d="m268.230469 288.839844c-1.285157 0-2.585938-.015625-3.914063-.046875-18.777344-.4375-33.570312-2.972657-46.554687-7.972657-11.492188-4.4375-18.890625-10.515624-21.992188-18.078124-1.847656-4.480469-2.367187-9.742188-1.683593-17.058594.675781-7.195313 2.226562-14.535156 3.722656-21.632813l.046875-.222656c2.46875-11.644531 5.023437-23.683594 3.824219-35.4375l-.757813-7.460937 6.617187 3.523437c1.628907.871094 3.117188 1.628906 4.542969 2.332031 3.136719 1.519532 6.449219 2.96875 9.824219 4.296875l3.058594 1.207031-.589844 3.234376c-1.71875 9.390624-3.332031 19.40625-2.605469 29.523437.90625 12.601563 5.585938 23.320313 13.183594 30.179687 6.105469 5.515626 14.714844 9.128907 25.585937 10.742188 3.558594.527344 6.96875.796875 10.132813.796875 4.464844 0 8.511719-.507813 12.375-1.550781 7.960937-2.148438 14.578125-6.632813 18.632813-12.625 2.777343-4.097656 4.605468-9.175782 5.757812-15.972656 1.757812-10.339844 1.464844-21.214844-.851562-31.46875-.042969-.136719-.085938-.292969-.121094-.472657l-.8125-4.148437 4.183594-.582032c2.875-.402343 5.792968-.875 8.914062-1.4375 2.195312-.410156 4.203125-.8125 6.109375-1.214843l3.527344-.75 1.109375 3.429687c4.625 14.269532 6.40625 26.769532 5.453125 38.214844-1.195313 14.269531-6.816407 26.792969-15.839844 35.269531-11.023437 10.355469-27.664063 15.382813-50.878906 15.382813zm0 0" fill="#935252"/><path d="m270.671875 264.730469c-3.0625 0-6.371094-.261719-9.839844-.777344-10.460937-1.558594-18.707031-5-24.511719-10.234375-7.207031-6.503906-11.65625-16.734375-12.519531-28.804688-.652343-9.152343.710938-18.574218 2.28125-27.386718l.800781-4.5 4.355469 1.390625c15.660157 4.996093 32.644531 7.535156 50.476563 7.535156 6.046875 0 12.257812-.296875 18.453125-.878906l4.484375-.421875-.113282 4.503906c-.003906.121094.003907.21875.023438.304688 2.285156 9.980468 2.589844 20.65625.871094 30.8125-1.105469 6.503906-2.835938 11.320312-5.4375 15.171874-3.773438 5.582032-9.980469 9.769532-17.476563 11.800782-3.695312 1-7.570312 1.484375-11.847656 1.484375zm0 0" fill="#af7979"/><path d="m226.953125 190.777344c-4.882813-1.730469-9.589844-3.695313-14-5.832032-33.90625-16.457031-58.6875-47.464843-64.679687-80.921874-.007813-.015626-.085938-.234376-.085938-.234376l-.035156-.109374c-.898438-3.050782 1.273437-4.707032 5.605468-8.015626.261719-.199218.464844-.351562.566407-.433593 2.777343-2.371094 5.898437-3.878907 8.855469-5.148438l2.007812-.835937c1-.414063 1.933594-.828125 2.855469-1.234375 3.195312-1.410157 6.496093-2.867188 10.484375-3.546875.875-.144532 2.003906-.308594 3.132812-.308594.917969 0 1.722656.101562 2.460938.316406 4.3125 1.222656 6.445312 6.292969 6.253906 10.4375-.199219 4.707032-2.585938 9.167969-4.691406 13.101563-.183594.355469-.136719.816406.128906 1.128906.199219.234375.480469.367187.773438.367187.109374 0 .21875-.019531.320312-.054687 3.789062-1.285156 7.660156-2.597656 11.632812-2.597656 4.214844 0 7.984376 1.75 9.839844 4.558593 1.640625 2.488282 1.957032 6.078126.84375 9.597657-1.09375 3.425781-3.292968 6.46875-5.265625 9.054687-.277343.359375-.277343.859375 0 1.230469.195313.257813.492188.40625.816407.40625.128906 0 .253906-.023437.375-.070313 2.898437-1.128906 6.199218-2.414062 9.484374-2.425781 3.445313 0 6.453126 1.546875 7.707032 3.941407 1.628906 3.140624.191406 6.996093-.808594 9.011718-.542969 1.109375-1.183594 2.203125-1.847656 3.320313-1.117188 1.90625-2.246094 3.828125-2.953125 5.953125-.132813.394531-.007813.835937.320312 1.113281.171875.144531.40625.226563.648438.226563.175781 0 .339843-.042969.492187-.125 3.46875-1.882813 7.480469-2.96875 10.996094-2.96875 3.074219 0 5.777344.777343 8.03125 2.308593 6.203125 4.195313 7.160156 12.832031 5.421875 19.082031-1.972656 7.125-6.90625 13.152344-11.257813 18.472657l-1.78125 2.175781zm0 0" fill="#c67045"/><path d="m101.609375 73.878906c-1.261719-5.03125-1.167969-10.914062.273437-17.488281 4.800782-22.0625 21.835938-41.160156 43.40625-48.652344l4.714844-1.636719 2.742188 23.820313-2.160156 1.335937c-6.675782 4.128907-12.664063 9.164063-17.800782 14.96875-6.945312 7.859376-12.207031 16.894532-15.644531 26.863282l-1.085937 3.152344-3.296876-.5h-.1875c-1.90625.121093-3.949218.464843-6.042968 1.027343l-3.925782 1.054688zm0 0" fill="#f7b36f"/><path d="m35.765625 188.25c2.757813-3.570312 3.980469-8.007812 3.351563-12.175781-.078126-.5-.507813-.875-1.007813-.875-.054687 0-.105469.003906-.15625.011719-.34375.054687-.550781.25-.667969.402343-.113281.15625-.242187.414063-.1875.761719.902344 6.011719-2.675781 12.425781-8.324218 14.914062l-1.90625.835938-1.78125-1.078125c-7.335938-4.445313-12.925782-12.296875-17.875-20.125-.148438-.226563-.339844-.527344-.492188-.800781l-1.140625-2.019532 1.183594-1.992187c.078125-.128906.175781-.28125.292969-.445313l.128906-.1875c3.945312-5.582031 9.414062-9.566406 15.203125-13.785156 2.414062-1.757812 4.570312-3.34375 6.660156-5.027344l.070313-.058593c.109374-.089844.210937-.171875.3125-.246094l1.253906-.90625 1.539062.175781c6.730469.773438 13.460938 4.503906 18.460938 10.238282 4.496094 5.171874 7.707031 11.847656 9.542968 19.851562.578126 2.523438 1.066407 5.453125.335938 8.09375l-.25 1.847656-1.363281 1.003906c-6.769531 4.980469-13.433594 7.683594-19.808594 8.023438l-8.714844.46875zm0 0" fill="#c67045"/><path d="m508.816406 341.523438c-8.667968-3.410157-11.472656-15.644532-9.757812-25.972657.785156-4.742187 2.1875-9.394531 3.671875-14.316406 2.125-7.042969 4.324219-14.324219 4.652343-22.089844.554688-13.253906-4.511718-25.917969-9.546874-36.558593-13.710938-28.996094-29.972657-47.882813-49.71875-57.742188-17.785157-8.882812-40.277344-11.152344-66.847657-6.746094-11.527343 1.910156-22.945312 4.816406-33.984375 7.628906-9.695312 2.46875-19.71875 5.019532-29.628906 6.839844-27.707031 5.085938-54.96875 4.199219-79.050781-2.339844 4.003906-5.046874 7.972656-10.726562 9.863281-17.542968 2.800781-10.101563-.429688-20.667969-7.855469-25.699219-4.054687-2.75-8.664062-3.597656-13.136719-3.28125 2.101563-4.867187 2.191407-9.566406.226563-13.335937-2.289063-4.398438-7.1875-7.140626-12.828125-7.199219.035156-.105469.070312-.214844.105469-.324219 1.6875-5.3125 1.121093-10.691406-1.550781-14.75-3-4.550781-8.558594-7.269531-14.875-7.277344-1.085938.003906-2.125.070313-3.160157.199219.550781-1.859375.929688-3.8125 1.019531-5.847656.289063-6.613281-3.273437-14.40625-10.632812-16.507813-3.023438-.867187-6.003906-.53125-8.265625-.148437-2.035156.347656-4.050781.851562-6.035156 1.46875 2.1875-3.988281 4.101562-8.257813 5.6875-12.785157 5.347656-15.253906 6.746093-31.488281 7.636719-45.503906.097656-1.523437-.503907-3.011718-1.640626-4.039062-1.132812-1.023438-2.671874-1.480469-4.179687-1.230469-7.277344 1.191406-14.328125 3.351563-20.980469 6.363281l-2.109375-18.339844c-.164062-1.425781-.933593-2.714843-2.113281-3.539062-1.179688-.8242188-2.65625-1.105469-4.050781-.765625-26.375 6.367187-47.976563 28.460937-53.753907 54.972656-1.738281 7.992188-1.714843 15.128907.042969 21.28125-.976562.433594-1.9375.871094-2.871093 1.296875-13.160157 5.996094-28.082032 12.792969-38.308594 25.285156-3.542969 4.328126-6.292969 9.078126-8.949219 13.671876-1.539063 2.660156-2.992187 5.167968-4.585937 7.601562-4.398438 6.714844-9.800782 12.675781-16.046876 17.714844-2.039062 1.648437-4.164062 3.195312-6.410156 4.832031-5.933594 4.328125-12.066406 8.800781-16.589844 15.1875-1.027343 1.453125-2.210937 3.445313-2.257812 5.980469-.046875 2.792968 1.300781 4.925781 2.105469 6.195312 7.375 11.648438 16 22.839844 29.039062 25.851563 1.785157.414062 4.039063.742187 6.675781.742187 7.824219 0 19.042969-2.890625 31.605469-15.054687.695313-.671875 2.136719-2.066407 2.648438-2.183594.257812.027344.996093.34375 1.480469.550781l.253906.105469c8.421875 3.59375 17.53125 4.890625 26.179687 3.980469 4.585938 8.339844 8.898438 16.964844 12.820313 25.640625 5.496094 12.167969 9.152344 22.183593 11.503906 31.511719 5.890625 23.363281 5.292969 50.015624-1.726562 77.066406-5.835938 22.496094-16.179688 46.082031-31.625 72.105468-.019532.03125-.027344.0625-.046876.09375-3.789062-1.597656-7.691406-3.367187-11.507812-5.34375-1.214844-.625-2.453125-1.359374-3.769531-2.136718-5.167969-3.054688-11.597657-6.851563-19.34375-5.148438-7.480469 1.652344-13.679688 8.0625-15.078125 15.59375-1.851563 9.96875 3.796875 20.082032 16.328125 29.253906 21.140625 15.472657 47.023437 26.355469 83.925781 35.277344 40.589844 9.816406 82.371094 14.765625 124.519531 14.765625 7.859375 0 15.734375-.171875 23.613281-.515625 50.136719-2.195312 99.367188-11.320312 146.324219-27.128906 14.046875-4.730469 28.785157-10.378906 41.382813-19.621094 8.535156-6.253906 13.601562-12.828125 15.496094-20.089844 3.082031-11.804687-3.710938-21.945312-11.769532-24.570312-5.738281-1.871094-11.378906-.4375-16.664062 1.191406-5.03125 1.550782-10.089844 3.222656-14.984375 4.835938-2 .660156-4.003907 1.3125-6.003907 1.964844l-45.746093-70.371094c-5.082031-7.8125-9.558594-15.445313-8.589844-22.890625.503906-3.863281 2.488281-7.628907 4.589844-11.613281 1.507812-2.855469 3.066406-5.808594 4.214843-9.042969 3.902344-10.953125 2.53125-24.113281-3.753906-36.101563-3.5625-6.804687-8.304687-12.65625-13.125-17.613281 27.539063 2.199219 46.660156 17.878906 53.433594 33.320313 4.308594 9.820312 5.179688 20.714843 6.105469 32.25.273437 3.421874.558593 6.960937.941406 10.445312 2.269531 20.8125 8.832031 34.96875 20.058594 43.277344 11.0625 8.191406 26.683593 10.398437 46.425781 6.5625 2.191406-.425782 3.839844-2.25 4.042969-4.472656.203125-2.222657-1.085938-4.3125-3.164063-5.125zm-189.351562-139.082032c2.078125-.378906 4.152344-.796875 6.222656-1.230468 4.453125 13.738281 6.183594 25.738281 5.273438 36.644531-1.113282 13.292969-6.296876 24.90625-14.589844 32.691406-10.8125 10.152344-27.808594 14.8125-51.957032 14.25-18.308593-.429687-32.675781-2.878906-45.214843-7.714844-10.417969-4.015625-17.054688-9.347656-19.734375-15.855469-1.585938-3.863281-2.019532-8.542968-1.394532-15.175781.660157-7.035156 2.207032-14.335937 3.703126-21.394531 2.539062-11.984375 5.144531-24.296875 3.890624-36.671875 1.535157.820313 3.082032 1.625 4.65625 2.390625 3.363282 1.632812 6.738282 3.097656 10.117188 4.4375-1.800781 9.890625-3.410156 20.078125-2.660156 30.527344.980468 13.628906 6.128906 25.296875 14.496094 32.855468 6.703124 6.054688 16.011718 10 27.675781 11.730469 3.773437.558594 7.339843.839844 10.726562.839844 4.796875 0 9.238281-.5625 13.414063-1.6875 8.890625-2.402344 16.316406-7.460937 20.90625-14.242187 3.105468-4.585938 5.136718-10.164063 6.390625-17.546876 1.851562-10.933593 1.523437-22.425781-.949219-33.230468-.011719-.054688-.035156-.097656-.050781-.152344 3.160156-.441406 6.195312-.933594 9.078125-1.464844zm-18.921875 2.617188c-.011719.40625.011719.820312.109375 1.238281 2.179687 9.53125 2.46875 19.667969.835937 29.3125-1.007812 5.917969-2.53125 10.242187-4.804687 13.597656-3.242188 4.789063-8.644532 8.402344-15.210938 10.175781-5.769531 1.558594-12.324218 1.757813-20.050781.609376-9.667969-1.433594-17.210937-4.546876-22.417969-9.246094-6.4375-5.816406-10.417968-15.09375-11.210937-26.125-.625-8.707032.667969-17.636719 2.230469-26.390625 25.054687 7.992187 49.847656 8.761719 70.519531 6.828125zm-135.78125-111.296875c.660156-.285157 1.324219-.558594 1.988281-.835938 4.207031-1.742187 7.871094-3.738281 12.453125-4.515625 1.210937-.207031 2.738281-.40625 3.816406-.097656 2.152344.613281 3.476563 3.816406 3.363281 6.417969-.167968 3.785156-2.226562 7.65625-4.21875 11.398437-.96875 1.820313-.726562 4.042969.605469 5.613282 1.335938 1.566406 3.492188 2.160156 5.441407 1.5 3.445312-1.171876 7.007812-2.386719 10.332031-2.386719 2.847656.003906 5.398437 1.085937 6.5 2.761719.972656 1.472656 1.113281 3.84375.367187 6.1875-.886718 2.789062-2.855468 5.507812-4.628906 7.835937-1.363281 1.785156-1.371094 4.261719-.023438 6.058594 1.351563 1.796875 3.730469 2.476562 5.828126 1.664062 2.722656-1.054687 5.539062-2.144531 8.066406-2.15625h.03125c1.84375 0 3.570312.753907 4.113281 1.796875.574219 1.101563.25 3.160156-.84375 5.378906-.484375.988282-1.074219 1.992188-1.699219 3.050782-1.15625 1.964844-2.464844 4.1875-3.3125 6.738281-.652344 1.957031-.042968 4.109375 1.539063 5.433594 1.578125 1.324219 3.804687 1.546875 5.617187.5625 4.144532-2.246094 10.527344-3.824219 14.882813-.875 4.359375 2.957031 5.21875 9.636719 3.8125 14.707031-1.730469 6.246094-6.171875 11.722656-10.5 17.011719-4.683594-1.660157-9.222657-3.546875-13.585938-5.664063-32.78125-15.914062-56.726562-45.8125-62.496093-78.03125-.046876-.269531-.132813-.523437-.21875-.773437-.152344-.507813 4.429687-3.839844 4.886718-4.230469 2.375-2.03125 5.085938-3.355469 7.882813-4.550781zm-58.976563-36.511719c4.570313-20.96875 20.632813-38.726562 40.816406-45.738281l1.878907 16.347656c-6.925781 4.28125-13.242188 9.5625-18.691407 15.71875-7.308593 8.261719-12.863281 17.882813-16.425781 28.207031-.332031-.046875-.671875-.0625-1.019531-.042968-2.363281.148437-4.648438.574218-6.855469 1.164062-1.097656-4.394531-1.015625-9.636719.296875-15.65625zm-95.199218 111.535156c-.089844-.140625-.25-.398437-.386719-.628906.066406-.097656.148437-.222656.253906-.371094 3.570313-5.046875 8.785156-8.847656 14.308594-12.875 2.246093-1.636718 4.570312-3.328125 6.800781-5.128906.070312-.058594.140625-.121094.210938-.179688 5.765624.667969 11.539062 3.890626 15.894531 8.890626 4.058593 4.667968 6.976562 10.765624 8.660156 18.125.46875 2.042968.878906 4.375.367187 6.164062-.0625.222656-.085937.445312-.117187.664062-4.660156 3.425782-10.949219 6.894532-17.648437 7.25 3.292968-4.261718 4.957031-9.78125 4.140624-15.222656-.410156-2.742187-2.96875-4.628906-5.710937-4.21875-2.738281.414063-4.628906 2.96875-4.21875 5.710938.640625 4.246094-2.050781 8.925781-5.976563 10.660156-6.804687-4.117188-12.0625-11.710938-16.578124-18.839844zm441.949218 231.6875c4.847656-1.601562 9.859375-3.257812 14.796875-4.777344 3.898438-1.203124 7.644531-2.203124 10.59375-1.242187 4.445313 1.449219 6.394531 7.789063 5.167969 12.492187-1.289062 4.9375-5.125 9.691407-11.71875 14.53125-11.496094 8.429688-25.371094 13.726563-38.652344 18.199219-46.0625 15.507813-94.363281 24.460938-143.558594 26.613281-49.195312 2.152344-98.089843-2.550781-145.332031-13.976562-35.554687-8.601562-60.339843-18.96875-80.359375-33.621094-5.25-3.84375-13.84375-11.464844-12.386718-19.320312.675781-3.621094 3.773437-6.828125 7.375-7.621094.574218-.128906 1.144531-.1875 1.714843-.1875 3.296875 0 6.609375 1.957031 10.355469 4.171875 1.375.8125 2.800781 1.65625 4.265625 2.414063 9.382813 4.851562 19.148437 8.5625 26.609375 11.253906 17.21875 6.207031 35.648438 11.03125 56.332031 14.746094 10.507813 1.886718 21.335938 3.441406 33.101563 4.75 84.171875 9.355468 171.285156.632812 251.925781-25.230469 3.261719-1.050781 6.515625-2.125 9.769531-3.195313zm-322.246094 7.382813c3.851563-17.46875 10.011719-39.710938 23.523438-57.179688 13.429688-17.359375 33.039062-27.242187 51.179688-25.796875 10.167968.8125 19.738281 4.875 29.875 9.175782 2.515624 1.066406 5.121093 2.171874 7.707031 3.210937 11.253906 4.519531 28.015625 9.910156 43.609375 4.605469 5.394531-1.832032 10.082031-4.734375 14.617187-7.539063 2.773438-1.714843 5.390625-3.335937 8.113281-4.691406 6.175782-3.082031 13.085938-4.824219 19.984376-5.050781 5.484374-.179688 13.347656.578125 19.664062 5.179687 3.683594 2.683594 6.59375 6.4375 9.828125 11.25 5.652344 8.402344 10.726563 17.476563 15.632813 26.25 4.21875 7.550781 8.039062 14.691407 11.734374 21.601563 3.027344 5.65625 6.152344 11.484375 9.503907 17.566406-66.347657 15.65625-135.792969 19.988281-203.3125 12.480469-11.542969-1.285157-22.152344-2.804688-32.4375-4.652344-10.28125-1.84375-19.96875-3.972656-29.222657-6.410156zm367.0625-129.132813c-.273437 6.5-2.195312 12.867188-4.230468 19.609375-1.511719 5.011719-3.074219 10.195313-3.96875 15.578125-1.589844 9.601563-.152344 20.933594 5.617187 28.859375-11.472656.75-20.628906-1.351562-27.285156-6.277343-8.851563-6.550782-14.101563-18.425782-16.054687-36.304688-.363282-3.339844-.640626-6.804688-.910157-10.15625-.949219-11.855469-1.933593-24.109375-6.917969-35.476562-13.011718-29.664063-48.417968-41.203126-75.816406-39.371094-2.039062.136718-3.789062 1.492187-4.433594 3.429687-.640624 1.9375-.042968 4.074219 1.511719 5.398438 6.746094 5.753906 15.152344 13.625 20.34375 23.527343 4.992188 9.515626 6.152344 19.75 3.1875 28.074219-.90625 2.554688-2.234375 5.066407-3.636719 7.726563-2.421874 4.597656-4.925781 9.347656-5.664062 15-1.527344 11.730468 5.484375 22.519531 10.125 29.660156l44.246094 68.058594c-9.289063 2.863281-18.660156 5.492187-28.097656 7.894531-3.828126-6.886719-7.351563-13.460937-10.753907-19.820313-3.714843-6.945312-7.558593-14.128906-11.824219-21.761718-5.007812-8.953125-10.183593-18.210938-16.0625-26.953125-3.316406-4.929688-7.09375-10.003907-12.25-13.761719-8.621093-6.28125-18.832031-7.324219-25.902343-7.101562-8.328125.269531-16.675781 2.378906-24.136719 6.097656-3.132812 1.5625-6.070312 3.382812-8.914062 5.140625-4.246094 2.628906-8.257813 5.109375-12.566407 6.574219-12.441406 4.230468-26.867187-.496094-36.636719-4.417969-2.5-1.003907-5.054687-2.089844-7.527343-3.136719-10.425781-4.425781-21.207031-9-33-9.941406-21.484375-1.714844-44.4375 9.652344-59.914063 29.660156-14.585937 18.855469-21.171875 42.1875-25.261718 60.59375-5.398438-1.605469-10.664063-3.316406-15.804688-5.171875-1.402344-.503906-2.910156-1.058594-4.460938-1.640625 15.511719-26.339844 25.976563-50.375 31.957032-73.417969 7.441406-28.679687 8.042968-57.050781 1.742187-82.042969-2.5-9.921874-6.34375-20.46875-12.089843-33.195312-3.617188-8.007812-7.578126-15.964844-11.757813-23.714844 3.273437-1.097656 6.402344-2.53125 9.296875-4.339844 14.300781-8.953124 21.960938-26.667968 18.207031-42.121093-.652343-2.695313-3.367187-4.34375-6.0625-3.695313-2.691406.65625-4.34375 3.371094-3.691406 6.0625 2.761719 11.375-3.035156 24.515625-13.78125 31.242188-10.1875 6.375-24.140625 7.082031-36.421875 1.847656l-.230469-.097656c-1.296875-.558594-3.078125-1.320313-5.226562-1.363282-2.367188-.058593-4.335938.726563-5.984375 1.777344-.0625-.296875-.125-.59375-.1875-.878906-2.058594-8.988281-5.71875-16.546875-10.875-22.472656-4.128906-4.746094-9.277344-8.335938-14.777344-10.417969 3.398438-3.636719 6.496094-7.550781 9.234375-11.734375 1.75-2.664062 3.339844-5.414062 4.878906-8.074219 2.574219-4.445312 5-8.640625 8.027344-12.339843 8.75-10.6875 22.539063-16.96875 34.703125-22.511719 4.320312-1.96875 8.765625-3.980469 13.21875-4.757813-.929688 4.480469-1.507812 9.042969-1.695312 13.648438-.109376 2.769531 2.046874 5.105468 4.816406 5.21875 2.78125.097656 5.105468-2.046875 5.21875-4.816406.667968-16.667969 7.390625-33.394532 18.441406-45.890626 9.640625-10.894531 22.871094-18.914062 37.019531-22.574218-.910156 11.679687-2.5 24.429687-6.632812 36.21875-5.09375 14.519531-13.773438 26.03125-24.441407 32.417968-5.71875 3.421876-12.3125 5.589844-18.007812 7.257813-2.660156.78125-4.183594 3.570313-3.40625 6.230469.644531 2.191406 2.644531 3.609375 4.816406 3.609375.46875 0 .941406-.066407 1.414063-.203125 4.597656-1.347656 9.753906-3.011719 14.800781-5.363282 6 28.757813 25.003906 55.53125 51.46875 73.347657.011719.347656.058594.695312.148438 1.042969 3.292968 12.867187.464843 26.222656-2.53125 40.359374-1.554688 7.335938-3.164063 14.925782-3.878907 22.539063-.488281 5.175781-.796875 12.875 2.105469 19.933594 3.769531 9.15625 12.316406 16.359375 25.402344 21.402343 13.652344 5.261719 29.09375 7.925782 48.59375 8.382813 1.371094.03125 2.71875.046875 4.046875.046875 24.816406 0 42.84375-5.578125 55.015625-17.011719 10.109375-9.488281 16.402344-23.402343 17.722656-39.175781 1.003906-12.019531-.78125-25.023438-5.445312-39.691406 4.804687-1.144532 9.5625-2.351563 14.242187-3.542969 10.835937-2.761719 22.042969-5.613281 33.152344-7.457031 24.4375-4.050782 44.867187-2.089844 60.71875 5.824218 17.652343 8.8125 32.414062 26.167969 45.128906 53.054688 4.730469 10.015625 9.046875 20.804688 8.585937 31.847656zm0 0"/><path d="m97.390625 123.097656c-2.242187-1.625-5.382813-1.121094-7.007813 1.125-1.523437 2.101563-4.371093 3.257813-6.925781 2.804688-2.554687-.453125-4.835937-2.511719-5.542969-5.007813-.757812-2.667969-3.535156-4.21875-6.199218-3.460937-2.667969.757812-4.214844 3.53125-3.460938 6.199218 1.75 6.15625 7.15625 11.039063 13.457032 12.152344.9375.167969 1.882812.246094 2.828124.246094 5.414063 0 10.78125-2.636719 13.976563-7.046875 1.625-2.246094 1.121094-5.386719-1.125-7.011719zm0 0"/></svg>