<svg id="Capa_1" enable-background="new 0 0 512 512" height="512" viewBox="0 0 512 512" width="512" xmlns="http://www.w3.org/2000/svg"><path d="m225.725 178.852c-21.015-48.443-50.865-89.433-85.548-120.944-5.436-4.939-14.197-1.139-14.304 6.205-.687 46.855 8.85 96.656 29.866 145.1s50.865 89.433 85.548 120.944c5.436 4.939 14.197 1.139 14.304-6.206.686-46.854-8.851-96.656-29.866-145.099z" fill="#eceaec"/><path d="m155.738 209.213c17.07 39.35 40.034 73.674 66.617 102.102-2.369-39.482-11.745-80.438-29.126-120.502-17.081-39.373-40.065-73.704-66.675-102.132 2.388 39.491 11.802 80.464 29.184 120.532z" fill="#e5646e"/><path d="m292.82 191.684c22.554-44.554 53.029-81.577 87.536-109.38 5.409-4.358 13.466-.279 13.156 6.66-1.977 44.27-13.771 90.75-36.325 135.304s-53.029 81.577-87.536 109.38c-5.409 4.358-13.466.279-13.156-6.66 1.978-44.27 13.772-90.75 36.325-135.304z" fill="#eceaec"/><path d="m317.889 210.385c-18.05 35.659-28.542 72.821-32.258 109.336 27.908-25.831 52.563-57.931 71.558-95.453 17.987-35.536 29.021-72.281 33.798-108.168-28.923 25.225-54.156 56.866-73.098 94.285z" fill="#ff8086"/><path d="m343.194 272.032h-192.387l-14.851 215.332c-.639 9.267 6.706 17.135 15.994 17.135h190.1c9.289 0 16.633-7.869 15.994-17.135z" fill="#5d5360"/><path d="m209.206 480.452c-2.247 0-4.328-.904-5.86-2.547-1.532-1.642-2.292-3.78-2.136-6.02l13.136-190.468.633-9.187-9.187.639-55.308 3.849-14.527 210.647c-.64 9.267 6.705 17.136 15.994 17.136h190.099c9.289 0 16.634-7.869 15.994-17.136l-.476-6.913z" fill="#4b3f4e"/><g fill="#ffe07d"><path d="m277.719 10.897 8.616 26.519h27.883c4.763 0 6.743 6.095 2.89 8.895l-22.557 16.389 8.616 26.519c1.472 4.53-3.713 8.297-7.566 5.497l-22.558-16.389-22.558 16.389c-3.853 2.8-9.038-.967-7.566-5.497l8.616-26.519-22.558-16.389c-3.853-2.8-1.873-8.895 2.89-8.895h27.883l8.616-26.519c1.473-4.529 7.881-4.529 9.353 0z"/><path d="m42.653 158.917 22.728 5.931 19.913-12.457 1.384 23.448 18.001 15.089-21.873 8.562-8.788 21.783-14.902-18.157-23.433-1.627 12.664-19.783z"/><path d="m419.411 166.934 22.728 5.93 19.913-12.457 1.384 23.448 18.001 15.089-21.873 8.562-8.788 21.783-14.902-18.157-23.433-1.627 12.664-19.783z"/></g><path d="m447.407 304.105c-1.644 0-3.311-.258-4.959-.791-44.825-14.568-117.89-23.266-195.448-23.266s-150.623 8.697-195.448 23.266c-8.415 2.74-17.465-1.871-20.201-10.294-2.74-8.423 1.871-17.465 10.29-20.205 48.563-15.782 123.413-24.831 205.359-24.831s156.796 9.049 205.359 24.831c8.419 2.74 13.03 11.781 10.29 20.205-2.2 6.771-8.486 11.085-15.242 11.085z" fill="#5d5360"/><path d="m247 280.048c-33.875 0-66.891 1.661-97.074 4.743l-3.872 56.141c31.87-3.097 65.773-4.772 100.945-4.772s69.075 1.675 100.945 4.772l-3.872-56.141c-30.18-3.082-63.197-4.743-97.072-4.743z" fill="#e5646e"/><path d="m344.074 284.792c-30.183-3.083-63.199-4.743-97.074-4.743s-66.891 1.661-97.074 4.743l-3.871 56.141c20.68-2.009 42.285-3.349 64.468-4.092l1.214-17.606c.576-8.36 7.297-14.787 15.634-14.948 6.496-.126 13.045-.19 19.629-.19 33.793 0 66.546 1.648 97.352 4.899l1.401.148z" fill="#db4655"/><path d="m454.677 265.682c-26.848-8.725-61.55-15.417-100.944-19.706 2.656-4.732 5.234-9.535 7.683-14.376 25.603-50.603 38.953-105.937 37.591-155.809-.075-2.753-1.653-5.244-4.111-6.488-2.458-1.243-5.399-1.039-7.662.531-40.987 28.446-77.66 71.98-103.263 122.583-7.938 15.688-14.742 31.893-20.268 48.197-4.897-.074-9.825-.114-14.779-.123-4.739-23.368-12.001-46.716-21.619-69.444-22.102-52.227-55.729-98.155-94.686-129.323-2.151-1.721-5.073-2.124-7.608-1.051-2.537 1.074-4.281 3.451-4.543 6.193-4.75 49.666 4.806 105.78 26.907 158.005 5.635 13.315 12.039 26.274 19.069 38.661-50.207 3.929-94.468 11.538-127.124 22.15-12.339 4.016-19.113 17.32-15.102 29.654 1.942 5.979 6.097 10.844 11.699 13.699 3.359 1.711 6.995 2.577 10.656 2.577 2.447 0 4.905-.387 7.297-1.166 23.102-7.508 53.912-13.428 89.045-17.368l-14.345 193.65c-.481 6.503 1.787 12.974 6.225 17.752s10.722 7.52 17.243 7.52h189.924c6.521 0 12.806-2.74 17.243-7.519s6.706-11.249 6.225-17.752l-14.345-193.65c35.135 3.94 65.949 9.861 89.058 17.372 2.37.765 4.814 1.153 7.265 1.153 10.222 0 19.213-6.537 22.373-16.264 4.013-12.337-2.761-25.641-15.104-29.658zm-106.646-40.854c-3.348 6.617-6.933 13.168-10.659 19.526-7.795-.696-15.745-1.301-23.832-1.813 3.339-7.985 6.999-15.929 10.932-23.701 14.467-28.594 32.629-54.914 53.159-77.219-5.969 27.971-15.968 56.264-29.6 83.207zm-50.676-25.64c21.995-43.471 52.42-81.416 86.616-108.293-.264 8.212-.927 16.55-1.976 24.966-27.814 26.238-52.31 59.448-70.909 96.207-4.9 9.686-9.397 19.63-13.398 29.601-6.021-.285-12.104-.52-18.244-.702 5.008-14.129 11.017-28.153 17.911-41.779zm-136.166-.162c-11.768-27.807-19.819-56.715-23.871-85.027 18.965 23.649 35.294 51.143 47.783 80.655 1.211 2.861 3.988 4.579 6.911 4.579.975 0 1.965-.191 2.919-.595 3.814-1.614 5.599-6.016 3.984-9.83-16.056-37.94-38.236-72.739-64.2-100.808-.474-8.468-.568-16.831-.273-25.043 32.289 29.141 60.063 69.067 79.049 113.934 8.829 20.864 15.587 42.258 20.131 63.677-5.732.069-11.429.178-17.076.335-1.641-6.396-3.471-12.829-5.476-19.17-1.249-3.95-5.461-6.138-9.413-4.889-3.949 1.249-6.138 5.463-4.889 9.413 1.589 5.025 3.066 10.111 4.421 15.186-6.091.259-12.111.575-18.067.935-8.187-13.74-15.567-28.308-21.933-43.352zm177.788 133.648c-3.72-.338-7.468-.665-11.231-.959-4.124-.326-7.74 2.761-8.063 6.891s2.761 7.74 6.891 8.063c4.541.356 9.069.754 13.528 1.172l10.37 139.996c.177 2.393-.625 4.678-2.257 6.437-1.633 1.758-3.853 2.726-6.252 2.726h-189.925c-2.399 0-4.619-.968-6.252-2.726-1.632-1.758-2.434-4.044-2.257-6.437l10.37-139.991c29.465-2.77 60.763-4.185 93.101-4.185 16.094 0 32.162.355 47.756 1.057 4.125.193 7.643-3.018 7.83-7.155.186-4.138-3.018-7.643-7.156-7.83-15.818-.711-32.113-1.072-48.43-1.072-31.885 0-62.786 1.364-91.978 4.023l3.049-41.158c27.879-2.589 58.028-3.977 88.929-3.977 30.9 0 61.049 1.388 88.929 3.977zm116.539-41.971c-1.147 3.53-4.405 5.902-8.108 5.902-.883 0-1.776-.144-2.641-.423-45.532-14.799-119.463-23.634-197.767-23.634s-152.235 8.834-197.77 23.634c-2.164.703-4.473.522-6.503-.512-2.031-1.035-3.538-2.799-4.243-4.97-1.455-4.473 1.003-9.297 5.476-10.752 47.841-15.548 121.846-24.464 203.04-24.464s155.2 8.917 203.037 24.463c4.477 1.456 6.935 6.281 5.479 10.756z"/><path d="m224.569 52.378 18.149 13.187-6.932 21.336c-1.667 5.132.145 10.711 4.51 13.883 4.366 3.171 10.232 3.171 14.597 0l18.15-13.187 18.15 13.187c2.183 1.585 4.74 2.378 7.298 2.378s5.116-.793 7.299-2.379c4.365-3.172 6.178-8.751 4.51-13.882l-6.932-21.336 18.149-13.187c4.366-3.171 6.179-8.75 4.512-13.882s-6.414-8.581-11.81-8.581h-22.434l-6.933-21.335c-1.667-5.132-6.413-8.58-11.809-8.58s-10.142 3.448-11.809 8.58l-6.933 21.336h-22.434c-5.396 0-10.142 3.448-11.81 8.581-1.667 5.131.146 10.71 4.512 13.881zm35.181-7.462c3.249 0 6.129-2.092 7.133-5.182l6.16-18.958 6.16 18.958c1.004 3.09 3.884 5.182 7.133 5.182h19.933l-16.126 11.717c-2.629 1.91-3.729 5.295-2.725 8.385l6.16 18.958-16.127-11.717c-1.314-.955-2.861-1.432-4.408-1.432s-3.094.478-4.408 1.433l-16.126 11.716 6.16-18.958c1.004-3.09-.096-6.475-2.725-8.385l-16.126-11.717z"/><path d="m35.164 208.971 20.207 1.403 12.85 15.657c1.437 1.75 3.571 2.742 5.796 2.742.377 0 .757-.028 1.136-.086 2.618-.4 4.83-2.152 5.82-4.607l7.578-18.784 18.862-7.383c2.466-.965 4.24-3.159 4.668-5.772s-.554-5.259-2.583-6.959l-15.523-13.012-1.193-20.22c-.156-2.643-1.694-5.008-4.047-6.223s-5.172-1.098-7.417.306l-17.172 10.742-19.599-5.113c-2.564-.67-5.287.063-7.169 1.926-1.882 1.862-2.643 4.58-2 7.149l4.91 19.65-10.919 17.059c-1.428 2.23-1.574 5.048-.384 7.414s3.537 3.927 6.179 4.111zm20.459-29.083-2.629-10.521 10.493 2.738c1.999.523 4.122.196 5.871-.898l9.194-5.751.639 10.826c.122 2.061 1.087 3.98 2.669 5.306l8.311 6.967-10.098 3.953c-1.922.752-3.45 2.264-4.222 4.178l-4.058 10.057-6.879-8.382c-1.31-1.596-3.219-2.581-5.278-2.724l-10.818-.751 5.847-9.133c1.112-1.742 1.459-3.862.958-5.865z"/><path d="m486.255 193.197-15.522-13.012-1.193-20.22c-.156-2.643-1.694-5.008-4.047-6.223s-5.172-1.098-7.417.306l-17.172 10.742-19.599-5.113c-2.564-.67-5.287.063-7.169 1.926-1.882 1.862-2.642 4.58-2 7.148l4.91 19.651-10.92 17.059c-1.428 2.23-1.574 5.048-.384 7.414s3.539 3.928 6.181 4.112l20.207 1.403 12.85 15.657c1.437 1.75 3.571 2.742 5.796 2.742.377 0 .757-.028 1.136-.086 2.618-.4 4.83-2.152 5.82-4.607l7.578-18.784 18.862-7.383c2.466-.965 4.24-3.159 4.667-5.772.427-2.614-.555-5.26-2.584-6.96zm-29.425 7.325c-1.922.752-3.449 2.264-4.221 4.178l-4.058 10.057-6.88-8.383c-1.31-1.595-3.219-2.581-5.278-2.724l-10.818-.751 5.847-9.133c1.113-1.738 1.46-3.859.959-5.861l-2.629-10.521 10.493 2.738c1.998.523 4.122.196 5.871-.898l9.194-5.751.639 10.826c.122 2.061 1.087 3.98 2.669 5.306l8.311 6.967z"/><path d="m284.368 130.455c-2.929-2.929-7.678-2.929-10.606 0l-6.721 6.721-6.721-6.721c-2.929-2.929-7.678-2.929-10.606 0-2.929 2.929-2.929 7.678 0 10.606l6.721 6.721-6.721 6.721c-2.929 2.929-2.929 7.678 0 10.606 1.464 1.464 3.384 2.197 5.303 2.197s3.839-.732 5.303-2.197l6.721-6.721 6.721 6.721c1.464 1.464 3.384 2.197 5.303 2.197s3.839-.732 5.303-2.197c2.929-2.929 2.929-7.678 0-10.606l-6.721-6.721 6.721-6.721c2.929-2.928 2.929-7.677 0-10.606z"/><path d="m62.629 99.169h4.524v4.524c0 4.142 3.358 7.5 7.5 7.5s7.5-3.358 7.5-7.5v-4.524h4.524c4.142 0 7.5-3.358 7.5-7.5s-3.358-7.5-7.5-7.5h-4.524v-4.524c0-4.142-3.358-7.5-7.5-7.5s-7.5 3.358-7.5 7.5v4.524h-4.524c-4.142 0-7.5 3.358-7.5 7.5s3.358 7.5 7.5 7.5z"/></svg>